<svg xmlns="http://www.w3.org/2000/svg" xmlns:xlink="http://www.w3.org/1999/xlink" width="193.482" height="30.615" viewBox="0 0 193.482 30.615"><defs><clipPath id="clip-path"><rect id="Rectangle_96" data-name="Rectangle 96" width="193.482" height="30.615" fill="none"/></clipPath></defs><g id="logo-parisandco-bleu" transform="translate(0 0)"><g id="Groupe_32" data-name="Groupe 32" transform="translate(0 0)" clip-path="url(#clip-path)"><path id="Tracé_17659" data-name="Tracé 17659" d="M0,.752H11.032c5.853,0,10.13,4.277,10.13,9.681s-4.277,9.681-10.13,9.681h-4.5v9H0ZM11.032,13.81a3.514,3.514,0,0,0,3.6-3.377,3.514,3.514,0,0,0-3.6-3.379h-4.5V13.81Z" transform="translate(0 -0.526)" fill="#132D4C"/><path id="Tracé_17660" data-name="Tracé 17660" d="M78.451.751H85.2L95.336,29.117H88.581l-1.8-5.4H76.874l-1.8,5.4H68.319Zm6.528,17.335L81.828,8.63l-3.151,9.455Z" transform="translate(-47.819 -0.526)" fill="#132D4C"/><path id="Tracé_17661" data-name="Tracé 17661" d="M166.654.752h11.481c5.9,0,9.906,4.1,9.906,9a9.183,9.183,0,0,1-5.4,8.555l6.3,10.807h-7.2l-5.177-9.455h-3.378v9.455h-6.528Zm11.481,12.607c2.3,0,3.6-1.351,3.6-3.151s-1.305-3.153-3.6-3.153h-4.953v6.3Z" transform="translate(-116.647 -0.526)" fill="#132D4C"/><rect id="Rectangle_95" data-name="Rectangle 95" width="6.528" height="28.366" transform="translate(75.686 0.225)" fill="#132D4C"/><path id="Tracé_17662" data-name="Tracé 17662" d="M293.823,19.136c0,2.566,1.351,3.828,4.051,3.828,2.523,0,3.828-1.351,3.828-2.927,0-4.277-13.958-1.8-13.958-11.932,0-4.277,3.826-8.1,10.13-8.1,6.079,0,9.907,3.828,9.907,9l-6.3.451a3.272,3.272,0,0,0-3.6-3.6c-2.025,0-3.377,1.305-3.377,2.7,0,4.051,13.958,1.574,13.958,11.932,0,4.5-3.826,8.33-10.581,8.33-6.528,0-10.356-3.828-10.356-9.23Z" transform="translate(-201.244 0)" fill="#132D4C"/><path id="Tracé_17663" data-name="Tracé 17663" d="M481.189,18.685a13.18,13.18,0,0,1-13.058,10.132,14.1,14.1,0,0,1-13.958-14.409A14.1,14.1,0,0,1,468.131,0a13.151,13.151,0,0,1,12.834,10.13l-6.755.451A6.062,6.062,0,0,0,468.131,6.3c-4.1,0-7.43,3.421-7.43,8.1s3.333,8.1,7.43,8.1c3.6,0,5.63-1.982,6.3-4.277Z" transform="translate(-317.891 0)" fill="#132D4C"/><path id="Tracé_17664" data-name="Tracé 17664" d="M551.762,14.409a13.966,13.966,0,1,1,27.917,0,13.966,13.966,0,1,1-27.917,0m21.388,0c0-4.684-3.333-8.1-7.43-8.1s-7.43,3.421-7.43,8.1,3.333,8.1,7.43,8.1,7.43-3.423,7.43-8.1" transform="translate(-386.197 0)" fill="#132D4C"/><path id="Tracé_17665" data-name="Tracé 17665" d="M386.029,15.8,384,18.722l-3.6-3.6,2.253-1.8a6.441,6.441,0,0,0,2.475-5.179c0-3.6-3.377-6.979-7.879-6.979s-7.879,3.377-7.879,6.979a7.776,7.776,0,0,0,2.251,5.4l1.351,1.575a12.48,12.48,0,0,0-2.612,1.982,8.391,8.391,0,0,0-2.566,5.9c0,4.051,3.151,7.2,8.555,7.2a11.72,11.72,0,0,0,6.168-1.667,18.015,18.015,0,0,0,2.092-1.721,34.671,34.671,0,0,0,3.41-4l.036-.046,4.953-6.979Zm-8.781-9.681A2.174,2.174,0,0,1,379.5,8.592c0,1.4-.9,2.251-2.477,3.377C375.9,10.843,375,9.987,375,8.592a2.174,2.174,0,0,1,2.251-2.477m2.207,17.335a3.714,3.714,0,0,1-2.433.9,2.528,2.528,0,0,1-2.7-2.475,3.763,3.763,0,0,1,.992-2.433,10.838,10.838,0,0,1,1.036-.946L380.4,22.55Z" transform="translate(-257.43 -0.813)" fill="#6fc9a6"/><path id="Tracé_17666" data-name="Tracé 17666" d="M430.349,76.392a34.611,34.611,0,0,1-3.41,4l3.7,3.7,3.7-3.707Z" transform="translate(-298.829 -53.469)" fill="#6fc9a6"/></g></g><script xmlns=""/></svg>