<?xml version="1.0" encoding="UTF-8" standalone="no"?>
<svg
   xmlns:dc="http://purl.org/dc/elements/1.1/"
   xmlns:cc="http://creativecommons.org/ns#"
   xmlns:rdf="http://www.w3.org/1999/02/22-rdf-syntax-ns#"
   xmlns:svg="http://www.w3.org/2000/svg"
   xmlns="http://www.w3.org/2000/svg"
   xmlns:sodipodi="http://sodipodi.sourceforge.net/DTD/sodipodi-0.dtd"
   xmlns:inkscape="http://www.inkscape.org/namespaces/inkscape"
   inkscape:version="1.0 (4035a4fb49, 2020-05-01)"
   sodipodi:docname="logo fabmob sans texte.svg"
   xml:space="preserve"
   enable-background="new 0 0 181 92"
   viewBox="0 0 90.708662 90.708662"
   height="24mm"
   width="24mm"
   y="0px"
   x="0px"
   id="Calque_2"
   version="1.1"><metadata
   id="metadata89"><rdf:RDF><cc:Work
       rdf:about=""><dc:format>image/svg+xml</dc:format><dc:type
         rdf:resource="http://purl.org/dc/dcmitype/StillImage" /><dc:title></dc:title></cc:Work></rdf:RDF></metadata><defs
   id="defs87" /><sodipodi:namedview
   inkscape:current-layer="g82"
   inkscape:window-maximized="1"
   inkscape:window-y="-6"
   inkscape:window-x="-6"
   inkscape:cy="54.107176"
   inkscape:cx="46.740218"
   inkscape:zoom="3.4046259"
   width="20mm"
   units="mm"
   showgrid="false"
   id="namedview85"
   inkscape:window-height="898"
   inkscape:window-width="1440"
   inkscape:pageshadow="2"
   inkscape:pageopacity="0"
   guidetolerance="10"
   gridtolerance="10"
   objecttolerance="10"
   borderopacity="1"
   bordercolor="#666666"
   pagecolor="#ffffff" />
<g
   id="g82">
	<polygon
   transform="translate(2.3497442,3.2308983)"
   id="polygon2"
   points="85.716,17.625 85.706,17.617 57.699,33.751 57.699,65.983 85.71,49.869 "
   fill="#d2ce00" />
	
	
	
	
	
	
	
	
	
	
	
	
	
	
	
	
	
	
	
	
	
	
	<g
   transform="translate(2.3497442,3.2308983)"
   id="g50">
		<rect
   id="rect48"
   height="0.0070000002"
   width="0.0040000002"
   fill="#c0c948"
   y="65.873001"
   x="1.733" />
	</g>
	<polygon
   transform="translate(2.3497442,3.2308983)"
   id="polygon52"
   points="57.699,65.983 29.75,49.742 3.369,64.928 1.742,65.879 1.738,65.881 29.657,82.066 "
   fill="#5eb8e0" />
	<polygon
   transform="translate(2.3497442,3.2308983)"
   id="polygon54"
   points="29.75,17.511 29.75,49.742 57.699,65.983 57.699,33.751 "
   fill="#97B837" />
	<polygon
   transform="translate(2.3497442,3.2308983)"
   id="polygon56"
   points="1.732,65.873 1.738,65.877 29.75,49.742 29.75,17.511 1.738,33.625 "
   fill="#9dcdd7" />
	<path
   id="path58"
   d="m 69.968744,49.226898 v -6.961 h 1.795 l 2.006,4.401 2.017,-4.401 h 1.796 v 6.961 h -1.776 v -3.274 l -1.447,3.01 h -1.168 l -1.448,-3.01 v 3.274 z"
   fill="#1a171b" />
	<path
   id="path60"
   d="m 43.052744,42.266898 h 3.467 c 1.501,0 2.26,0.815 2.26,1.916 0,0.703 -0.33,1.181 -0.85,1.469 0.706,0.265 1.161,0.805 1.161,1.617 0,1.151 -0.855,1.958 -2.269,1.958 h -3.77 v -6.96 z m 1.785,1.625 v 1.107 h 1.478 c 0.479,0 0.661,-0.227 0.661,-0.555 0,-0.333 -0.188,-0.552 -0.566,-0.552 z m 0,2.498 v 1.223 h 1.789 c 0.482,0 0.66,-0.254 0.66,-0.622 0,-0.362 -0.178,-0.601 -0.66,-0.601 z"
   fill="#1a171b" />
	<path
   id="path62"
   d="m 51.215744,62.011898 -17.622,-11.492 v -20.893 c 0,-0.83 -0.666,-1.488 -1.488,-1.488 -0.823,0 -1.489,0.659 -1.489,1.488 v 20.878 l -17.634,11.507 c -0.69,0.452 -0.884,1.374 -0.436,2.063 0.451,0.688 1.374,0.88 2.064,0.435 l 17.489,-11.412 17.489,11.412 c 0.688,0.447 1.612,0.254 2.061,-0.435 0.45,-0.689 0.258,-1.611 -0.434,-2.063 z"
   fill="#1a171b" />
	<path
   id="path64"
   d="m 15.189744,42.263898 h 5.172 v 1.732 h -3.393 v 1.233 h 2.846 v 1.615 h -2.846 v 2.384 h -1.779 z"
   fill="#1a171b" />
	<path
   id="path66"
   d="m 32.821744,63.087898 2.812,6.968 h -1.947 l -0.383,-1.017 h -2.742 l -0.386,1.017 h -1.947 l 2.821,-6.968 z m -0.885,2.29 -0.771,2.046 h 1.529 z"
   fill="#1a171b" />
	<g
   transform="translate(2.3497442,3.2308983)"
   id="g72">
		<polygon
   id="polygon68"
   points="85.716,17.611 57.796,1.424 29.756,17.509 57.701,33.751 85.71,17.613 "
   fill="#ffe000" />
		<polygon
   id="polygon70"
   points="85.678,17.615 85.671,17.617 85.682,17.625 85.682,17.619 "
   fill="#c0c948" />
	</g>
	<g
   transform="translate(2.3497442,3.2308983)"
   id="g76">
		<rect
   id="rect74"
   height="0.0080000004"
   width="0.011"
   fill="#c0c948"
   y="50.068001"
   x="29.862" />
	</g>
	<path
   id="path78"
   d="m 40.927744,27.737898 17.619,11.495 v 20.896 c 0,0.819 0.666,1.489 1.49,1.489 0.824,0 1.487,-0.67 1.487,-1.489 v -20.889 l 17.637,-11.502 c 0.688,-0.453 0.885,-1.373 0.434,-2.065 -0.448,-0.689 -1.372,-0.879 -2.063,-0.432 l -17.487,11.408 -17.489,-11.409 c -0.691,-0.447 -1.615,-0.257 -2.061,0.432 -0.451,0.693 -0.257,1.613 0.433,2.066 z"
   fill="#1a171b" />
	<path
   id="path80"
   d="m 59.968744,17.880898 c 2.032,0 3.696,1.621 3.696,3.615 0,1.992 -1.664,3.609 -3.696,3.609 -2.009,0 -3.699,-1.617 -3.699,-3.609 0,-1.994 1.69,-3.615 3.699,-3.615 z m 0,5.511 c 1.07,0 1.892,-0.843 1.892,-1.896 0,-1.053 -0.821,-1.894 -1.892,-1.894 -1.046,0 -1.893,0.84 -1.893,1.894 10e-4,1.053 0.847,1.896 1.893,1.896 z"
   fill="#1a171b" />
</g>
</svg>
