<?xml version="1.0" encoding="UTF-8" standalone="no"?>
<svg xmlns:dc="http://purl.org/dc/elements/1.1/" xmlns:cc="http://creativecommons.org/ns#" xmlns:rdf="http://www.w3.org/1999/02/22-rdf-syntax-ns#" xmlns:svg="http://www.w3.org/2000/svg" xmlns="http://www.w3.org/2000/svg" viewBox="0 0 861.64001 131.2" height="75" width="492" xml:space="preserve" id="svg2" version="1.1"><metadata id="metadata8"><rdf:RDF><cc:Work rdf:about=""><dc:format>image/svg+xml</dc:format><dc:type rdf:resource="http://purl.org/dc/dcmitype/StillImage"></dc:type></cc:Work></rdf:RDF></metadata><defs id="defs6"></defs><g transform="matrix(1.3333333,0,0,-1.3333333,0,131.2)" id="g10"><g transform="scale(0.1)" id="g12"><path id="path14" style="fill: #2f404c; fill-opacity: 1; fill-rule: nonzero; stroke: none" d="m 1230.53,580.215 c -99.22,10.265 -129.48,24.773 -129.48,62.098 0,36.031 43.58,56.695 119.56,56.695 61.31,0 106.27,-9.211 155.16,-31.778 l 12.99,-5.996 41.41,102.793 -12.88,4.981 c -65.57,25.379 -114.93,33.945 -195.62,33.945 -178.14,0 -241.604,-86.836 -241.604,-168.101 0,-128.579 117.004,-156.766 218.984,-166.969 114.36,-11.098 133.65,-30.09 133.65,-68.477 0,-46.808 -50.97,-70.547 -151.51,-70.547 -56.53,0 -107.16,11.442 -159.33,35.996 l -14.27,6.715 -32.594,-107.707 11.168,-4.812 c 62.336,-26.867 118.206,-37.328 199.286,-37.328 172.29,0 267.17,62.722 267.17,176.621 0,68.16 -23.02,161.172 -222.09,181.871"></path><path id="path16" style="fill: #2f404c; fill-opacity: 1; fill-rule: nonzero; stroke: none" d="m 1812.94,326.73 c -115.15,0 -186.67,71.125 -186.67,185.606 0,114.484 71.52,185.605 186.67,185.605 115.14,0 186.67,-71.121 186.67,-185.605 0,-114.481 -71.53,-185.606 -186.67,-185.606 z m 0,476.223 c -183.04,0 -310.86,-119.508 -310.86,-290.617 0,-171.109 127.82,-290.613 310.86,-290.613 183.02,0 310.85,119.504 310.85,290.613 0,171.109 -127.83,290.617 -310.85,290.617"></path><path id="path18" style="fill: #2f404c; fill-opacity: 1; fill-rule: nonzero; stroke: none" d="m 2892.11,802.953 c -77.43,0 -146.2,-29.785 -199.99,-86.375 -36.88,57.336 -100.31,86.375 -188.87,86.375 -71.46,0 -129.83,-24.398 -177.5,-74.414 l -4.84,63.758 H 2208.38 V 232.375 h 126.31 v 376.449 c 49.22,61.754 96.84,85.918 168.56,85.918 72.81,0 102.51,-39.883 102.51,-137.66 V 232.375 h 126.32 V 556.02 c 0,18.894 -1.49,37.898 -4.54,57.91 48.06,58.058 94.67,80.812 164.57,80.812 72.81,0 102.51,-39.883 102.51,-137.66 V 232.375 h 126.31 V 556.02 c 0,161.546 -79.12,246.933 -228.82,246.933"></path><path id="path20" style="fill: #2f404c; fill-opacity: 1; fill-rule: nonzero; stroke: none" d="m 3499.33,695.813 c 103.33,0 145.28,-32.18 150.01,-117.657 h -314.47 c 15.07,81.129 91.68,117.657 164.46,117.657 z m 10.66,107.14 c -176.42,0 -304.47,-122.668 -304.47,-291.68 0,-181.308 116.61,-289.55 311.92,-289.55 99.75,0 154.49,10.668 225.26,43.906 l 11.18,5.254 -38.29,107.789 -14.08,-7.856 c -50.71,-28.285 -102.19,-39.824 -177.68,-39.824 -82.74,0 -173.33,37.965 -187.4,143.227 h 423.7 l 2.71,10.078 c 8.35,31.004 10.06,56.203 10.06,84.504 0,146.617 -98.28,234.152 -262.91,234.152"></path><path id="path22" style="fill: #40bb6a; fill-opacity: 1; fill-rule: nonzero; stroke: none" d="M 4427.94,366.84 4294.03,770.555 H 4196.6 L 4066.5,366.531 3935.41,770.555 h -126.95 l 180.83,-538.18 h 146.37 l 108.63,330.711 107.67,-330.711 h 143.33 l 180.83,538.18 H 4552.08 L 4427.94,366.84"></path><path id="path24" style="fill: #40bb6a; fill-opacity: 1; fill-rule: nonzero; stroke: none" d="m 5114.38,485.656 v -92.773 c -51.66,-43.5 -105.88,-62.957 -174.95,-62.957 -60.24,0 -90.79,24.812 -90.79,73.746 0,21.301 4.84,37.523 15.62,51.965 68.39,18.465 144.14,27.574 250.12,30.019 z M 5237.5,381.297 v 222.66 c 0,135.762 -77.45,198.996 -243.74,198.996 -85.8,0 -146.54,-12.535 -232.13,-47.91 l -11.07,-4.574 28.54,-105.574 14.43,6.214 c 67.42,29.043 129.69,42.571 195.97,42.571 104.44,0 124.88,-34.075 124.88,-92.918 V 584.23 c -145.09,-3.734 -239.45,-16.855 -333.48,-46.109 l -3.68,-1.141 -2.54,-2.91 c -37.45,-42.961 -53.42,-83.55 -53.42,-135.726 0,-110.598 76.38,-176.621 204.32,-176.621 90.6,0 159.77,23.437 210.44,71.5 11.51,-45.289 41.47,-71.5 83.6,-71.5 28.02,0 48.89,3.164 74.44,11.293 l 9.49,3.015 v 93.895 h -13.62 c -45.08,0 -52.43,7.203 -52.43,51.371"></path><path id="path26" style="fill: #40bb6a; fill-opacity: 1; fill-rule: nonzero; stroke: none" d="m 5499.32,695.902 h 108.55 c 46.17,0 101.19,-12.031 101.19,-69.351 0,-66.621 -76.83,-71.797 -100.38,-71.797 h -109.36 z m 323.39,-69.351 c 0,100.664 -81.41,168.297 -202.59,168.297 H 5385.67 V 227.961 h 113.65 v 227.848 h 99.36 l 142.1,-227.848 h 133.46 l -158.67,249.824 c 66.68,25.926 107.14,81.203 107.14,148.766"></path><path id="path28" style="fill: #40bb6a; fill-opacity: 1; fill-rule: nonzero; stroke: none" d="m 6188.69,695.813 c 103.33,0 145.28,-32.18 150.01,-117.657 h -314.48 c 15.08,81.129 91.69,117.657 164.47,117.657 z m 10.65,107.14 c -176.42,0 -304.46,-122.668 -304.46,-291.68 0,-181.308 116.61,-289.55 311.92,-289.55 99.75,0 154.49,10.668 225.26,43.906 l 11.17,5.254 -38.29,107.789 -14.07,-7.856 c -50.72,-28.285 -102.2,-39.824 -177.68,-39.824 -82.74,0 -173.33,37.965 -187.41,143.227 h 423.71 l 2.71,10.078 c 8.35,31.004 10.06,56.203 10.06,84.504 0,146.617 -98.29,234.152 -262.92,234.152"></path><path id="path30" style="fill: #40bb6a; fill-opacity: 1; fill-rule: nonzero; stroke: none" d="m 648.945,771.387 c 36.059,-37.242 63.86,-80.317 82.653,-126.981 v 132.496 c 0,22.325 -18.102,40.418 -40.418,40.418 h -95.465 c 18.855,-13.601 36.715,-28.879 53.23,-45.933"></path><path id="path32" style="fill: #40bb6a; fill-opacity: 1; fill-rule: nonzero; stroke: none" d="m 89.5313,778.117 c 14.6247,14.379 30.2027,27.434 46.5347,39.203 H 40.4219 C 18.0977,817.32 0,799.227 0,776.902 V 644.113 c 20.0117,49.723 50.168,95.309 89.5313,134.004"></path><path id="path34" style="fill: #40bb6a; fill-opacity: 1; fill-rule: nonzero; stroke: none" d="M 0,375.098 V 222.32 C 0,199.996 18.0977,181.902 40.4219,181.902 H 111.008 C 65.1641,246.227 25.25,312.523 0,375.098"></path><path id="path36" style="fill: #40bb6a; fill-opacity: 1; fill-rule: nonzero; stroke: none" d="m 616.344,181.902 h 74.836 c 22.316,0 40.418,18.094 40.418,40.418 V 373.039 C 705.68,311.063 664.168,245.5 616.344,181.902"></path><path id="path38" style="fill: #40bb6a; fill-opacity: 1; fill-rule: nonzero; stroke: none" d="m 365.691,891.355 h 0.004 c 2.125,0 4.235,-0.019 6.364,-0.054 45.074,-0.715 88.855,-8.988 129.964,-24.09 -10.093,65.219 -65.808,115.668 -134.027,116.762 -69.777,1.113 -128.133,-49.805 -138.449,-116.891 43.082,15.891 89.004,24.27 136.144,24.273"></path><path id="path40" style="fill: #2f404c; fill-opacity: 1; fill-rule: nonzero; stroke: none" d="M 365.695,843.215 C 177.48,843.207 22.7734,691.602 19.7539,502.699 17.5,361.836 193,144.473 297.801,27.4258 313.094,10.3594 334.973,0.394531 357.824,0.0117188 c 0.449,-0.00781255 0.895,-0.01562505 1.336,-0.01562505 14.207,0 28.094,3.74218625 40.32,10.61330625 7.051,3.957 13.524,8.9414 19.196,14.8672 108.508,113.6364 290.851,325.2344 293.097,466.1644 1.485,92.41 -33.128,179.855 -97.41,246.261 -64.312,66.399 -150.633,103.801 -243.07,105.27 -1.875,0.027 -3.734,0.043 -5.598,0.043 z m 0,-48.141 v 0 c 1.614,0 3.211,-0.008 4.832,-0.039 79.559,-1.258 153.875,-33.445 209.246,-90.613 55.36,-57.188 85.145,-132.481 83.872,-212.016 -1.45,-90.926 -103.426,-249 -279.782,-433.6794 -2.3,-2.4063 -4.98,-4.4766 -7.965,-6.1563 -5.164,-2.8984 -10.949,-4.4336 -16.738,-4.4336 l -0.531,0.0078 c -9.52,0.1602 -18.625,4.3164 -24.965,11.3907 C 163.305,249.805 66.4336,411.047 67.8828,501.926 70.4688,663.563 204.07,795.07 365.695,795.074"></path><path id="path42" style="fill: #40bb6a; fill-opacity: 1; fill-rule: nonzero; stroke: none" d="m 514.133,596.363 0.258,0.149 z M 294.391,645.934 C 226.176,607.602 200.203,521.426 236.633,451.59 c 17.984,-34.516 48.347,-59.942 85.476,-71.606 37.125,-11.668 76.555,-8.164 111.028,9.832 70.843,36.344 98.922,125.321 61.781,196.539 -37.137,71.227 -125.32,98.922 -196.527,61.758 -1.364,-0.691 -2.696,-1.445 -4,-2.179 z M 458.414,354.25 c -1.723,-0.973 -3.461,-1.914 -5.215,-2.824 -44.75,-23.367 -95.926,-27.906 -144.082,-12.75 -48.144,15.125 -87.531,48.125 -110.898,92.875 -48.203,92.379 -12.02,207.273 80.101,254.957 44.797,23.347 95.946,27.875 144.11,12.762 48.16,-15.157 87.539,-48.125 110.898,-92.875 l 0.016,-0.024 C 580.617,515.77 546.91,403.98 458.414,354.25"></path></g></g></svg>
