<?xml version="1.0" encoding="UTF-8" standalone="no"?>
<svg
   xmlns:dc="http://purl.org/dc/elements/1.1/"
   xmlns:cc="http://creativecommons.org/ns#"
   xmlns:rdf="http://www.w3.org/1999/02/22-rdf-syntax-ns#"
   xmlns:svg="http://www.w3.org/2000/svg"
   xmlns="http://www.w3.org/2000/svg"
   xmlns:sodipodi="http://sodipodi.sourceforge.net/DTD/sodipodi-0.dtd"
   xmlns:inkscape="http://www.inkscape.org/namespaces/inkscape"
   data-name="Layer 1"
   width="1027.9999"
   height="661.85767"
   viewBox="0 0 1027.9999 661.85769"
   version="1.1"
   id="svg102"
   sodipodi:docname="communs_numeriques_politique.svg"
   inkscape:version="0.92.5 (2060ec1f9f, 2020-04-08)">
  <metadata
     id="metadata108">
    <rdf:RDF>
      <cc:Work
         rdf:about="">
        <dc:format>image/svg+xml</dc:format>
        <dc:type
           rdf:resource="http://purl.org/dc/dcmitype/StillImage" />
        <dc:title>voting</dc:title>
      </cc:Work>
    </rdf:RDF>
  </metadata>
  <defs
     id="defs106" />
  <sodipodi:namedview
     pagecolor="#ffffff"
     bordercolor="#666666"
     borderopacity="1"
     objecttolerance="10"
     gridtolerance="10"
     guidetolerance="10"
     inkscape:pageopacity="0"
     inkscape:pageshadow="2"
     inkscape:window-width="1848"
     inkscape:window-height="1016"
     id="namedview104"
     showgrid="false"
     inkscape:zoom="0.68647074"
     inkscape:cx="230.14786"
     inkscape:cy="275.42963"
     inkscape:window-x="72"
     inkscape:window-y="27"
     inkscape:window-maximized="1"
     inkscape:current-layer="svg102" />
  <title
     id="title2">voting</title>
  <circle
     cx="789.89771"
     cy="242.42542"
     r="21.92017"
     id="circle4"
     style="opacity:0.4;fill:#92e5ff;fill-opacity:1" />
  <circle
     cx="327.72961"
     cy="112.50104"
     r="31.2479"
     id="circle6"
     style="opacity:0.4;fill:#92e5ff;fill-opacity:1" />
  <circle
     cx="269.89767"
     cy="127.42541"
     r="21.92017"
     id="circle8"
     style="opacity:0.4;fill:#92e5ff;fill-opacity:1" />
  <polygon
     points="677.843,615.818 166.746,615.818 166.746,301.631 315.876,233.581 777.746,233.581 777.746,533.289 "
     id="polygon14"
     style="fill:#3f3d56"
     transform="translate(17.799561,-6.3791306e-5)" />
  <polygon
     points="741.882,258.788 677.843,301.631 166.746,301.631 315.876,233.581 777.746,233.581 777.746,234.782 "
     id="polygon16"
     style="opacity:0.1"
     transform="translate(17.799561,-6.3791306e-5)" />
  <polygon
     points="677.843,615.818 678.567,300.907 741.882,258.788 777.167,233.581 777.746,233.581 777.746,533.289 "
     id="polygon18"
     style="opacity:0.1"
     transform="translate(17.799561,-6.3791306e-5)" />
  <polygon
     points="354.969,261.814 653.23,261.814 643.094,274.845 331.803,274.845 "
     id="polygon20"
     style="fill:#2f2e41"
     transform="translate(17.799561,-6.3791306e-5)" />
  <path
     d="m 569.78101,89.641276 c 0,0 -8.12905,-23.0323 -14,-15.80648 -5.87095,7.22582 9.03228,19.41939 9.03228,19.41939 z"
     id="path46"
     inkscape:connector-curvature="0"
     style="fill:#a0616a" />
  <path
     d="m 608.16818,67.060586 -4.89023,1.81233 c 0,0 -2.33563,10.38124 -1.43241,12.1877 0.90322,1.80646 1.35485,0.45161 0,4.06452 -1.35485,3.61291 -5.41936,13.0968 -5.871,14.45164 -0.45164,1.354844 -26.1936,-8.58066 -26.1936,-13.54841 0,0 -5.41937,6.32259 -8.12905,7.67743 0,0 29.80651,21.677464 33.871,24.387154 4.06449,2.70969 6.32259,1.35484 9.9355,-1.80646 3.61291,-3.1613 18.96778,-29.354894 18.96778,-29.354894 z"
     id="path48"
     inkscape:connector-curvature="0"
     style="fill:#575a89" />
  <path
     d="m 595.07138,227.38348 c 0,0 0.45161,4.96775 1.35484,5.41936 0.90323,0.45161 7.67743,11.742 0,14 -7.67743,2.258 -12.19357,1.35484 -14,2.25807 -1.80643,0.90323 -33.41942,2.70968 -33.871,-2.25807 -0.45158,-4.96775 15.35487,-5.871 15.35487,-5.871 0,0 14.45164,-9.48389 16.70971,-14.45164 2.25807,-4.96775 14.45158,0.90328 14.45158,0.90328 z"
     id="path50"
     inkscape:connector-curvature="0"
     style="fill:#2f2e41" />
  <path
     d="m 686.74895,236.41575 c 0,0 10.83873,18.51617 8.12905,20.77424 -2.70968,2.25807 -29.09883,10.487 -32.96781,10.83873 -4.96775,0.45161 -8.58066,-3.61291 -4.51613,-5.871 4.06453,-2.25809 12.64518,-11.742 12.64518,-14.90326 v -8.12905 z"
     id="path52"
     inkscape:connector-curvature="0"
     style="fill:#2f2e41" />
  <path
     d="m 697.13609,115.38326 c 0,0 9.48389,11.742 -5.41937,30.70974 l -24.83877,31.61296 c 0,0 15.35486,24.38715 15.80648,37.03233 0.45162,12.64518 3.61291,9.9355 4.51614,15.35487 0.90323,5.41937 4.96775,2.70968 1.80645,6.77421 -3.1613,4.06453 -14.90325,7.67743 -18.51616,4.51613 a 11.196,11.196 0 0 1 -3.61291,-9.03227 c 0,-1.80646 -6.3226,-12.19357 -6.77421,-15.35487 -0.45161,-3.1613 -17.16132,-28.90328 -17.16132,-28.90328 0,0 -5.41937,-15.35487 0.90322,-23.93553 6.32259,-8.58066 10.50059,-20.75047 10.50059,-20.75047 0,0 -18.62963,22.55692 -31.72643,27.97629 0,0 -4.96775,0.90323 -4.06453,3.1613 0.90322,2.25807 0,3.61291 -1.35484,5.871 -1.35484,2.25809 -10.83873,28.45166 -14,35.22587 -3.16127,6.77421 -1.80646,10.83873 -5.41937,13.0968 -3.61291,2.25807 -19.871,0.45161 -19.871,-1.80646 0,-2.25807 2.25807,-8.129 3.61291,-11.29034 1.35484,-3.16134 12.19358,-39.742 11.29035,-46.06461 -0.90323,-6.32261 0.45161,-14.90325 7.22582,-18.51616 6.77421,-3.61291 41.09685,-32.9678 42.90331,-32.9678 1.80646,0 54.19364,-2.70971 54.19364,-2.70971 z"
     id="path54"
     inkscape:connector-curvature="0"
     style="fill:#2f2e41" />
  <circle
     cx="606.36176"
     cy="25.512127"
     r="18.967779"
     id="circle56"
     style="fill:#a0616a" />
  <path
     d="m 621.71659,27.318576 c 0,0 5.871,10.38712 13.0968,11.742 7.2258,1.35488 -18.96778,22.12907 -18.96778,22.12907 0,0 -6.32259,-19.871 -11.742,-20.77423 -5.41941,-0.90323 17.61298,-13.09684 17.61298,-13.09684 z"
     id="path58"
     inkscape:connector-curvature="0"
     style="fill:#a0616a" />
  <path
     d="m 603.20043,69.770266 c 0,5.871 17.61293,22.58069 17.61293,22.58069 l 16.70971,14.000004 c 0,0 0.45162,4.96775 2.25807,5.41936 1.80645,0.45161 4.06452,0.45162 2.25807,3.1613 -1.80645,2.70968 -6.32259,8.58066 -2.25807,9.48389 a 33.19905,33.19905 0 0 0 3.69869,0.35224 c 1.08394,0.0632 2.35741,0.12195 3.7891,0.17614 3.3419,0.11742 7.52385,0.19419 12.05355,0.16257 q 1.93071,-0.007 3.929,-0.0451 c 17.07555,-0.33871 36.85625,-2.30324 35.23944,-8.77485 -2.70968,-10.83873 -0.90323,-14.45164 -6.77421,-20.322624 -5.87098,-5.87098 -15.35486,-26.1936 -15.35486,-26.1936 0,0 -18.96778,-32.06457 -34.77426,-32.06457 l -3.28325,-0.8626 a 7.51865,7.51865 0 0 0 -8.20578,3.15228 c -3.17034,4.82775 -8.16973,12.08067 -11.09166,14.42 -4.51614,3.61292 -5.22068,1.02066 -5.22068,1.02066 0,0 -10.58579,8.46328 -10.58579,14.33426 z"
     id="path60"
     inkscape:connector-curvature="0"
     style="fill:#575a89" />
  <path
     d="m 643.39405,138.41557 c 0,0 -13.0968,20.32261 -4.96775,23.93552 8.12905,3.61291 12.64518,-21.22584 12.64518,-21.22584 z"
     id="path62"
     inkscape:connector-curvature="0"
     style="fill:#a0616a" />
  <path
     d="m 618.76178,23.369686 c -0.728,-0.0919 -0.95819,-1.01038 -1.08072,-1.73382 -0.65615,-3.87406 -3.54323,-7.54771 -7.42237,-8.1731 a 10.50968,10.50968 0 0 0 -4.42234,0.3564 16.77941,16.77941 0 0 0 -5.67433,2.793 9.35988,9.35988 0 0 1 -2.83563,1.78059 c -0.71175,0.209 -3.73378,1.55256 -4.43989,1.77989 -1.55246,0.4998 -2.83715,2.12472 -4.436,1.803 -1.52966,-0.30781 -2.1106,-2.15493 -2.35645,-3.69575 -0.56011,-3.51031 1.44913,-8.7479998 3.44681,-11.6882998 1.516,-2.23127 4.0813,-3.51539 6.64622,-4.3508 a 47.75242,47.75242 0 0 1 9.21763,-1.83156999 c 4.219,-0.49827 8.5887,-0.76263 12.63192,0.54148 4.04322,1.30410999 7.72477,4.49425999 8.47957,8.67499999 0.15723,0.8708798 0.18669,1.7628998 0.37937,2.6266298 0.47006,2.10707 1.8642,3.87819 2.67744,5.878 a 11.3188,11.3188 0 0 1 -0.3453,9.17585 c -1.12613,2.26466 -3.08447,4.44091 -2.66184,6.93456 l -3.48505,-2.748 a 2.53111,2.53111 0 0 1 -1.16328,-2.96248 l 0.50663,-4.36376 a 3.8395,3.8395 0 0 0 -0.226,-2.35932 c -1.54902,-2.70583 -2.22265,1.71565 -3.43639,1.5625 z"
     id="path64"
     inkscape:connector-curvature="0"
     style="fill:#2f2e41" />
  <path
     d="m 651.5231,107.25422 -4.25417,17.6897 c 4.29033,0.15356 9.967,0.23485 15.98256,0.11742 1.51748,-4.55227 2.96714,-9.29874 4.07809,-13.7426 4.06452,-16.258104 -2.70968,-41.096854 -6.32259,-52.838814 -3.61291,-11.74196 -12.64519,-14.90326 -12.64519,-14.90326 a 41.18516,41.18516 0 0 0 -10.38711,5.41937 c -5.87098,4.06452 13.54841,58.258184 13.54841,58.258184 z"
     id="path66"
     inkscape:connector-curvature="0"
     style="opacity:0.1" />
  <path
     d="m 647.91019,106.35099 -4.43036,18.41679 c 1.08394,0.0632 2.35741,0.12195 3.7891,0.17614 3.3419,0.11742 7.52385,0.19419 12.05355,0.16257 1.63026,-4.83676 3.2065,-9.94 4.39419,-14.691 4.06452,-16.258094 -2.70968,-41.096854 -6.32259,-52.838814 -3.61291,-11.74196 -11.51615,1.129 -11.51615,1.129 0,0 3.16129,-7.67744 -2.70969,-3.61291 -5.87098,4.06453 4.74195,51.258224 4.74195,51.258224 z"
     id="path68"
     inkscape:connector-curvature="0"
     style="opacity:0.1" />
  <path
     d="m 646.55535,42.673446 c 0,0 9.03227,3.16129 12.64518,14.90325 3.61291,11.74196 10.38712,36.58072 6.32259,52.838814 -4.06453,16.25809 -12.64517,36.58072 -12.64517,36.58072 0,0 -8.58066,-6.3226 -11.742,-4.96775 l 8.58066,-35.67749 c 0,0 -19.41936,-54.193634 -13.54838,-58.258184 a 41.185,41.185 0 0 1 10.38712,-5.41936 z"
     id="path70"
     inkscape:connector-curvature="0"
     style="fill:#575a89" />
  <polygon
     points="301.62,109.085 378.456,269.199 635.488,269.199 510.541,8.828 "
     id="polygon72"
     style="fill:#f2f2f2"
     transform="translate(17.799561,-6.3791306e-5)" />
  <rect
     x="267.09674"
     y="310.3902"
     width="123.08078"
     height="7.6395001"
     transform="rotate(-25.6354)"
     id="rect74"
     style="fill:#3f3d56" />
  <rect
     x="267.09671"
     y="378.29684"
     width="123.08078"
     height="7.6395001"
     transform="rotate(-25.6354)"
     id="rect76"
     style="fill:#3f3d56" />
  <rect
     x="419.88666"
     y="299.35535"
     width="30.557989"
     height="30.557989"
     transform="rotate(-25.6354)"
     id="rect78"
     style="fill:#3f3d56" />
  <rect
     x="419.88666"
     y="367.26202"
     width="30.557989"
     height="30.557989"
     transform="rotate(-25.6354)"
     id="rect80"
     style="fill:#3f3d56" />
  <polygon
     points="493.077,82.83 490.984,88.785 512.214,96.246 525.672,58.017 519.718,55.924 508.372,88.206 "
     id="polygon82"
     style="fill:#50f19e;fill-opacity:1"
     transform="translate(17.799561,-6.3791306e-5)" />
  <polygon
     points="522.457,144.053 520.364,150.007 541.593,157.468 555.052,119.239 549.097,117.146 537.751,149.428 "
     id="polygon84"
     style="fill:#50f19e;fill-opacity:1"
     transform="translate(17.799561,-6.3791306e-5)" />
  <path
     inkscape:connector-curvature="0"
     style="fill:#3f3d56"
     d="m 1027.9999,580.85764 a 13.68982,13.68982 0 0 1 -0.1699,2.12 c -7.1402,43.76 -234.4601,78.88 -513.8301,78.88 -279.3699,0 -506.6899,-35.12 -513.8299,-78.88 a 13.67509,13.67509 0 0 1 -0.17,-2.12 c 0,-0.2 0,-0.41 0.02,-0.61 0,-0.11005 0.01,-0.21 0.01,-0.32 a 0.48944,0.48944 0 0 0 0.01,-0.12 c 0.04,-0.45 0.1,-0.88 0.18,-1.32 3.26,-17.89 43.35,-34.33 108.74,-47.5 53.48,-10.77 123.89,-19.36 204.93,-24.76 61.5,-4.1 129.12,-6.37 200.1099,-6.37 57.12,0 112.06,1.47 163.38,4.17 h 0.02 q 16.11,0.855 31.74,1.87 c 71.33,4.62 134.63,11.69 185.63,20.54 31.37,5.45 58.1,11.58 79.1899,18.22 h 0.01 c 32.46,10.23 51.6001,21.7 53.8101,33.83 0.08,0.44 0.1399,0.87 0.1799,1.32 a 0.48659,0.48659 0 0 0 0.01,0.12 c 0,0.11 0.01,0.21 0.01,0.32 0.02,0.19997 0.02,0.40999 0.02,0.61 z"
     id="path1189" />
  <ellipse
     style="opacity:0.1"
     cx="501.00003"
     cy="634.85767"
     rx="165"
     ry="24"
     id="ellipse1191" />
  <path
     inkscape:connector-curvature="0"
     style="opacity:0.1"
     d="m 973.9599,544.65763 c -5.77,1.65 -12.27,3.18 -19.3999,4.58 -29.3601,5.78 -69.42,9.33 -113.53,9.33 -49.28,0 -93.45,-4.43 -123.38,-11.44 -24.84,-5.81994 -39.88,-13.38995 -39.88,-21.69995 0,-7.30005 11.64,-14.06 31.37,-19.53 71.33,4.62 134.63,11.69 185.63,20.54 31.3699,5.44993 58.0999,11.57994 79.1899,18.21995 z"
     id="path1193" />
  <path
     inkscape:connector-curvature="0"
     style="opacity:0.1"
     d="m 531.9999,533.60764 c 0,15.13 -94.9199,27.4 -211.9999,27.4 -117.08,0 -212,-12.27 -212,-27.4 a 4.372,4.372 0 0 1 0.96,-2.62 c 53.48,-10.77 123.89,-19.36 204.93,-24.76 q 3.045,-0.015 6.11,-0.01 c 117.08,-1e-5 211.9999,12.26 211.9999,27.39 z"
     id="path1195" />
  <rect
     style="fill:#92e5ff;fill-opacity:1"
     x="416.47183"
     y="397.83521"
     width="41.68539"
     height="134.58427"
     id="rect1197" />
  <rect
     style="fill:#92e5ff;fill-opacity:1"
     x="279.50552"
     y="334.71158"
     width="41.68539"
     height="197.70787"
     id="rect1199" />
  <rect
     style="fill:#92e5ff;fill-opacity:1"
     x="143.73027"
     y="334.71158"
     width="41.68539"
     height="197.70787"
     id="rect1201" />
  <rect
     style="fill:#92e5ff;fill-opacity:1"
     x="211.61797"
     y="334.71158"
     width="41.68539"
     height="134.58427"
     id="rect1203" />
  <rect
     style="fill:#92e5ff;fill-opacity:1"
     x="347.39322"
     y="334.71158"
     width="41.68539"
     height="39.303371"
     id="rect1205" />
  <rect
     style="fill:#8a8b8c"
     x="347.39322"
     y="397.83521"
     width="41.68539"
     height="134.58427"
     id="rect1207" />
  <rect
     style="fill:#92e5ff;fill-opacity:1"
     x="416.47183"
     y="334.71158"
     width="109.57303"
     height="39.303371"
     id="rect1209" />
  <path
     inkscape:connector-curvature="0"
     style="fill:#92e5ff;fill-opacity:1"
     d="m 815.0619,322.88924 q 42.7483,0 72.7737,29.83923 a 97.98265,97.98265 0 0 1 21.8319,32.83846 107.34579,107.34579 0 0 1 0.095,78.40917 93.53335,93.53335 0 0 1 -21.7395,32.294 104.70367,104.70367 0 0 1 -33.8414,22.5609 101.42451,101.42451 0 0 1 -39.1138,7.82277 99.01466,99.01466 0 0 1 -38.6617,-7.73362 104.84511,104.84511 0 0 1 -55.3994,-55.39621 101.7643,101.7643 0 0 1 0.089,-77.5941 102.30668,102.30668 0 0 1 22.4686,-33.38603 q 29.1085,-29.6482 71.497,-29.65457 z m 0.3693,18.3773 q -34.9302,0 -58.7678,24.37889 a 87.59486,87.59486 0 0 0 -18.4665,27.38128 80.78885,80.78885 0 0 0 0,63.31126 86.24851,86.24851 0 0 0 45.5771,45.30966 82.68682,82.68682 0 0 0 63.41,-0.0891 87.99456,87.99456 0 0 0 27.7411,-18.37412 q 23.8313,-23.28684 23.8281,-58.40492 a 83.65859,83.65859 0 0 0 -6.1863,-32.02018 81.465,81.465 0 0 0 -18.0016,-26.92917 q -24.5763,-24.56201 -59.1341,-24.5636 z m -1.2767,66.59064 -13.6492,7.09685 a 14.0061,14.0061 0 0 0 -5.3649,-6.36774 12.08742,12.08742 0 0 0 -5.9156,-1.818 q -13.6397,0 -13.646,18.01115 0,8.18574 3.4544,13.09526 3.4577,4.9143 10.1916,4.91589 8.9165,0 12.5572,-8.73335 l 12.5508,6.36774 a 29.99,29.99 0 0 1 -26.7445,16.01168 q -13.6445,0 -22.0164,-8.3704 -8.3673,-8.36721 -8.3673,-23.28364 0,-14.55666 8.4596,-23.10535 8.4579,-8.5487 21.3797,-8.55187 18.9265,-0.01 27.1106,14.73178 z m 58.7647,0 -13.4646,7.09685 a 13.99175,13.99175 0 0 0 -5.368,-6.36774 12.37253,12.37253 0 0 0 -6.0939,-1.818 q -13.6445,0 -13.6493,18.01115 0,8.18574 3.4577,13.09526 3.4529,4.9143 10.1916,4.91589 8.9069,0 12.5476,-8.73335 l 12.7355,6.36774 a 31.27658,31.27658 0 0 1 -11.2741,11.73575 29.39766,29.39766 0 0 1 -15.464,4.27593 q -13.8308,0 -22.0993,-8.3704 -8.2908,-8.36721 -8.2844,-23.28364 0,-14.55666 8.4627,-23.10535 8.4532,-8.5487 21.3734,-8.55187 18.9217,-0.01 26.9291,14.73178 z"
     id="path1211" />
  <path
     inkscape:connector-curvature="0"
     style="opacity:0.1"
     d="m 753.4168,573.19579 c 0,48.73748 -67.9342,33.66253 -151.1129,33.66253 -83.1786,0 -150.1036,15.075 -150.1036,-33.66253 0,-48.73753 67.925,-59.33747 151.1036,-59.33747 83.1786,0 150.1129,10.59999 150.1129,59.33747 z"
     id="path1213" />
  <path
     inkscape:connector-curvature="0"
     style="fill:#3f3d56"
     d="m 753.4168,561.19579 c 0,48.73748 -67.9342,33.66253 -151.1129,33.66253 -83.1786,0 -150.1036,15.075 -150.1036,-33.66253 0,-48.73753 67.925,-59.33747 151.1036,-59.33747 83.1786,0 150.1129,10.59999 150.1129,59.33747 z"
     id="path1215" />
  <path
     inkscape:connector-curvature="0"
     style="fill:#2f2e41"
     d="m 739.5415,473.70223 3.4336,14.16355 a 0.88462,0.88462 0 0 1 -0.017,0.478 l -15.5755,48.67335 a 0.88465,0.88465 0 0 1 -1.7216,-0.16974 l -2.1546,-18.96122 a 0.88471,0.88471 0 0 1 0.038,-0.374 l 14.2965,-43.87567 a 0.88465,0.88465 0 0 1 1.7009,0.0657 z"
     id="path1217" />
  <polygon
     transform="translate(0,62.86023)"
     style="fill:#f2f2f2"
     points="741.449,424.19 727.711,468.572 724.541,454.835 738.278,412.038 "
     id="polygon1219" />
  <path
     inkscape:connector-curvature="0"
     style="fill:#2f2e41"
     d="m 669.0638,540.94275 c 0.5284,1.58507 54.949,-0.52835 55.4774,-1.05671 a 11.4687,11.4687 0 0 0 1.1623,-2.11342 c 0.4967,-1.05671 0.9511,-2.11342 0.9511,-2.11342 l -2.1134,-17.10815 -53.8923,-1.91265 c 0,0 -1.3473,14.49808 -1.6221,21.13422 a 15.85321,15.85321 0 0 0 0.037,3.17013 z"
     id="path1221" />
  <polygon
     transform="translate(0,62.86023)"
     style="opacity:0.1"
     points="718.729,472.799 694.953,472.799 694.953,458.005 717.673,458.005 "
     id="polygon1223" />
  <polygon
     transform="translate(0,62.86023)"
     style="opacity:0.1"
     points="673.291,462.76 687.028,462.76 687.17,462.732 686.5,469.1 673.291,469.1 "
     id="polygon1225" />
  <path
     inkscape:connector-curvature="0"
     style="opacity:0.1"
     d="m 669.0638,540.94275 c 0.5284,1.58507 54.949,-0.52835 55.4774,-1.05671 a 11.4687,11.4687 0 0 0 1.1623,-2.11342 h -56.6767 a 15.85321,15.85321 0 0 0 0.037,3.17013 z"
     id="path1227" />
  <path
     inkscape:connector-curvature="0"
     style="fill:#2f2e41"
     d="m 585.0553,485.46543 h 14.794 l 36.4565,-14.26559 c 0,0 25.8894,-10.56712 23.776,9.5104 -2.1134,20.07751 -5.8119,47.02363 -5.8119,47.02363 0,0 -11.6238,-5.28356 -17.9641,-3.69849 -6.3402,1.58507 -2.1134,-32.22968 -2.1134,-32.22968 0,0 -51.7788,24.8327 -56.534,21.66257 -4.7552,-3.17013 -5.8119,-25.36106 -5.8119,-25.36106 z"
     id="path1229" />
  <path
     inkscape:connector-curvature="0"
     style="opacity:0.1"
     d="m 585.0553,485.46543 h 14.794 l 36.4565,-14.26559 c 0,0 25.8894,-10.56712 23.776,9.5104 -2.1134,20.07751 -5.8119,47.02363 -5.8119,47.02363 0,0 -11.6238,-5.28356 -17.9641,-3.69849 -6.3402,1.58507 -2.1134,-32.22968 -2.1134,-32.22968 0,0 -51.7788,24.8327 -56.534,21.66257 -4.7552,-3.17013 -5.8119,-25.36106 -5.8119,-25.36106 z"
     id="path1231" />
  <path
     inkscape:connector-curvature="0"
     style="fill:#a0616a"
     d="m 608.3633,439.13609 17.9038,25.72348 41.74,34.87146 c 0,0 38.57,8.982 33.2864,15.32231 -5.2835,6.34031 -37.5132,-6.34027 -37.5132,-6.34027 0,0 -48.0804,-34.87145 -49.6654,-37.51323 -1.585,-2.64178 -19.0208,-27.47449 -19.0208,-27.47449 z"
     id="path1233" />
  <path
     inkscape:connector-curvature="0"
     style="opacity:0.1"
     d="m 608.3633,439.13609 17.9038,25.72348 41.74,34.87146 c 0,0 38.57,8.982 33.2864,15.32231 -5.2835,6.34031 -37.5132,-6.34027 -37.5132,-6.34027 0,0 -48.0804,-34.87145 -49.6654,-37.51323 -1.585,-2.64178 -19.0208,-27.47449 -19.0208,-27.47449 z"
     id="path1235" />
  <circle
     style="fill:#a0616a"
     cx="605.66132"
     cy="387.19135"
     r="23.77599"
     id="circle1237" />
  <path
     inkscape:connector-curvature="0"
     style="fill:#a0616a"
     d="m 604.0761,408.32553 c 0,0 -7.9253,13.73724 -9.5104,21.13422 -1.585,7.39698 -23.776,-14.79395 -23.776,-14.79395 l -2.9059,-7.66115 c 0,0 20.87,-9.77458 19.285,-17.69991 -1.585,-7.92533 16.9073,19.02079 16.9073,19.02079 z"
     id="path1239" />
  <path
     inkscape:connector-curvature="0"
     style="fill:#d0cde1"
     d="m 597.7359,418.36429 11.6238,22.71928 c 0,0 -2.6418,11.09546 -6.8686,12.15217 -4.2269,1.05671 -22.191,-13.73724 -22.191,-13.73724 z"
     id="path1241" />
  <path
     inkscape:connector-curvature="0"
     style="fill:#a0616a"
     d="m 608.303,449.53726 21.6625,28.5312 51.7789,38.56994 c 0,0 37.5132,7.92534 29.0595,13.73724 -8.4537,5.8119 -32.758,-5.28355 -32.758,-5.28355 0,0 -52.3072,-28.00284 -63.4026,-39.62666 -11.0955,-11.62382 -31.7013,-31.17301 -31.7013,-31.17301 z"
     id="path1243" />
  <path
     inkscape:connector-curvature="0"
     style="fill:#2f2e41"
     d="m 579.2434,493.91912 6.3403,10.03875 37.8393,-11.9045 a 29.75135,29.75135 0 0 1 24.7708,2.98851 c 6.6044,4.1608 10.8313,10.76524 1.3209,20.53981 -19.0208,19.54915 -31.7013,8.982 -31.7013,8.982 0,0 -63.931,30.11625 -74.4981,15.3223 -10.5672,-14.79395 -11.0955,-22.19093 -11.0955,-22.19093 0,0 40.6834,-25.36101 47.0236,-23.77594 z"
     id="path1245" />
  <path
     inkscape:connector-curvature="0"
     style="fill:#d0cde1"
     d="m 658.4967,528.79058 c 0,0 16.9074,11.09546 -3.1701,16.379 -20.0775,5.28354 -34.8715,-2.11343 -34.8715,-2.11343 0,0 -17.4357,0 -17.4357,-8.982 0,-8.982 5.8119,-10.03875 5.8119,-10.03875 l 17.9641,2.64178 c 0,0 21.6626,-5.81193 31.7013,2.1134 z"
     id="path1247" />
  <path
     inkscape:connector-curvature="0"
     style="fill:#2f2e41"
     d="m 625.1658,381.21033 a 17.728,17.728 0 0 0 4.9823,1.78469 4.548,4.548 0 0 0 4.5953,-1.96886 6.18073,6.18073 0 0 0 0.522,-2.7952 c 0.064,-2.90132 -0.1462,-6.03778 -1.9847,-8.28309 -1.1701,-1.429 -2.8782,-2.32977 -4.0894,-3.72406 a 17.59821,17.59821 0 0 1 -2.0671,-3.37767 c -2.3556,-4.42406 -5.8432,-8.67589 -10.6903,-9.9513 a 23.18347,23.18347 0 0 0 -6.24,-0.47707 l -12.2062,0.17221 a 21.25081,21.25081 0 0 0 -5.872,0.632 c -3.9289,1.1879 -6.7895,4.49179 -9.4094,7.65139 a 47.85117,47.85117 0 0 0 -5.3964,7.44763 26.133,26.133 0 0 0 -3.0977,12.80437 11.97989,11.97989 0 0 0 0.4388,3.38808 18.80129,18.80129 0 0 0 1.3317,2.925 c 2.2891,4.49613 3.6482,10.1121 1.0703,14.44908 4.4781,-1.82926 8.9089,-4.22774 11.863,-8.05834 1.3215,-1.71364 2.3579,-3.7197 4.119,-4.9772 1.7611,-1.2575 4.6308,-1.36658 5.7607,0.479 a 5.163,5.163 0 0 1 0.5826,2.41835 11.084,11.084 0 0 0 0.6676,4.08133 3.05833,3.05833 0 0 0 3.3223,1.8956 c 2.3004,-0.648 2.0801,-4.17861 3.8519,-5.78243 1.3456,-1.218 3.4216,-0.98516 5.1503,-1.53807 a 7.64334,7.64334 0 0 0 4.3865,-4.32052 c 0.6545,-1.46807 0.6451,-5.3098 1.8837,-6.10481 1.5532,-0.99698 5.0854,0.58807 6.5252,1.22989 z"
     id="path1249" />
  <path
     inkscape:connector-curvature="0"
     style="fill:#d0cde1"
     d="m 565.9964,404.4984 a 6.27057,6.27057 0 0 1 3.2639,0.008 c 3.3916,0.91054 10.9947,3.321 12.6249,6.989 2.1134,4.7552 9.5104,12.15217 9.5104,12.15217 0,0 10.0388,10.03875 7.9253,16.90737 -2.1134,6.86862 -10.0387,14.794 -10.0387,14.794 0,0 2.1134,32.75801 -8.4537,41.21173 -10.5671,8.45372 -14.794,2.64178 -14.794,10.56711 0,7.92533 -32.758,32.758 -39.0983,17.43573 0,0 3.1701,-28.5312 2.1134,-38.56995 -1.0414,-9.89406 0.4832,-71.62386 36.9468,-81.49547 z"
     id="path1251" />
  <path
     inkscape:connector-curvature="0"
     style="fill:#d0cde1"
     d="m 582.9419,417.83593 c 0,0 32.2297,23.776 26.4178,33.81475 0,0 -19.5492,9.5104 -23.776,8.982 -4.2269,-0.5284 -20.6059,-19.02079 -24.8327,-20.60586 -4.2268,-1.58507 -6.3403,-30.11622 22.1909,-22.19089 z"
     id="path1253" />
  <path
     inkscape:connector-curvature="0"
     style="fill:#2f2e41"
     d="m 493.8106,439.14167 c -5.0127,1.69284 -9.5539,5.65228 -10.5804,10.84253 -0.4758,2.40592 -0.1841,4.907 -0.5845,7.32661 -0.9287,5.61162 -5.3336,9.89723 -9.3964,13.87801 -4.0628,3.98078 -8.2584,8.60617 -8.5549,14.28636 -0.3247,6.22 4.1862,12.047 3.4056,18.22633 -0.9069,7.17909 -8.4895,11.831 -10.3639,18.82016 -1.2516,4.667 0.2821,9.6942 2.8055,13.81484 4.8086,7.85231 13.0279,13.18323 21.7809,16.041 8.7529,2.85777 18.075,3.45905 27.2822,3.55552 11.2108,0.11746 23.3828,-0.845 31.806,-8.244 a 25.48043,25.48043 0 0 0 8.459,-16.5882 c 0.8002,-8.57064 -2.777,-17.42641 -0.3095,-25.67311 1.5528,-5.19 5.4471,-9.93 4.8659,-15.316 -0.5682,-5.26625 -5.1677,-8.99907 -8.3231,-13.25346 -2.9461,-3.97222 -4.7338,-8.66319 -6.4859,-13.28794 l -5.9948,-15.82384 c -1.1785,-3.1107 -2.4726,-6.38232 -5.0989,-8.424 -4.9166,-3.8221 -12.8224,-3.07115 -18.5715,-2.28285 -5.3334,0.7313 -11.0123,0.3699 -16.1413,2.10204 z"
     id="path1255" />
  <path
     inkscape:connector-curvature="0"
     style="fill:#ffb9b9"
     d="m 495.688,485.23641 c 0,0 2.6575,8.63681 -17.2736,18.60236 -19.9311,9.96555 1.9931,20.59548 1.9931,20.59548 l 23.2529,5.315 c 0,0 23.9173,-3.32185 26.5748,-7.30808 2.6575,-3.98623 7.3081,-17.27362 5.9794,-19.26673 a 31.0614,31.0614 0 0 0 -3.3219,-3.98622 c 0,0 -15.9449,-2.65748 -15.2805,-9.96555 0.6644,-7.30807 -21.9242,-3.98626 -21.9242,-3.98626 z"
     id="path1257" />
  <path
     inkscape:connector-curvature="0"
     style="opacity:0.1"
     d="m 495.688,485.23641 c 0,0 2.6575,8.63681 -17.2736,18.60236 -19.9311,9.96555 1.9931,20.59548 1.9931,20.59548 l 23.2529,5.315 c 0,0 23.9173,-3.32185 26.5748,-7.30808 2.6575,-3.98623 7.3081,-17.27362 5.9794,-19.26673 a 31.0614,31.0614 0 0 0 -3.3219,-3.98622 c 0,0 -15.9449,-2.65748 -15.2805,-9.96555 0.6644,-7.30807 -21.9242,-3.98626 -21.9242,-3.98626 z"
     id="path1259" />
  <circle
     style="fill:#ffb9b9"
     cx="508.64322"
     cy="477.59619"
     r="21.25984"
     id="circle1261" />
  <path
     inkscape:connector-curvature="0"
     style="fill:#ffff38;fill-opacity:1"
     d="m 506.3179,522.44113 c 0,0 -25.6036,-1.87245 -26.0892,-19.53858 0,0 -9.1224,-1.05689 -11.7799,1.60059 -2.6574,2.65748 -11.2943,4.65059 -11.2943,11.29429 0,6.6437 14.6162,26.57481 14.6162,26.57481 0,0 7.9724,26.5748 4.6506,31.22539 -3.3219,4.65059 -3.9862,16.60925 -3.9862,16.60925 0,0 33.2185,-2.65748 38.5334,0 5.315,2.65748 26.5748,2.65748 27.9036,0 1.3287,-2.65748 -1.3288,-35.876 -1.3288,-35.876 0,0 5.9794,-7.97244 4.6506,-17.27362 l 15.9449,-18.60232 c 0,0 -5.9794,-17.938 -15.2805,-17.938 0,0 -12.623,-3.32185 -12.9553,-1.66092 -0.3322,1.66093 6.3116,20.26326 -23.5851,23.58511 z"
     id="path1263" />
  <path
     inkscape:connector-curvature="0"
     style="fill:#ffb9b9"
     d="m 446.5246,580.9057 c 0,0 5.9793,9.30118 21.2598,11.29429 15.2806,1.99311 17.938,-3.32185 16.6093,-4.65059 -1.3288,-1.32874 -17.2736,-7.30807 -17.2736,-7.30807 l -9.3012,-7.30807 z"
     id="path1265" />
  <path
     inkscape:connector-curvature="0"
     style="fill:#ffb9b9"
     d="m 555.4813,572.93326 -17.2736,9.96555 c 0,0 -22.5886,-1.32874 -13.9518,5.315 8.6368,6.64374 24.5817,3.98622 24.5817,3.98622 l 15.2805,-7.30807 z"
     id="path1267" />
  <path
     inkscape:connector-curvature="0"
     style="fill:#2f2e41"
     d="m 469.1132,590.20688 c 0,0 -15.9449,39.19784 3.3218,45.17717 19.2668,5.97933 72.4164,4.65059 84.375,-3.32185 11.9587,-7.97244 15.2805,-18.60236 13.2874,-21.92421 -1.9931,-3.32185 -15.2805,-12.623 -24.5817,-13.2874 -9.3011,-0.6644 -76.4025,-6.64371 -76.4025,-6.64371 z"
     id="path1269" />
  <path
     inkscape:connector-curvature="0"
     style="opacity:0.05"
     d="m 469.1132,590.20688 c 0,0 -15.9449,39.19784 3.3218,45.17717 19.2668,5.97933 72.4164,4.65059 84.375,-3.32185 11.9587,-7.97244 15.2805,-18.60236 13.2874,-21.92421 -1.9931,-3.32185 -15.2805,-12.623 -24.5817,-13.2874 -9.3011,-0.6644 -76.4025,-6.64371 -76.4025,-6.64371 z"
     id="path1271" />
  <path
     inkscape:connector-curvature="0"
     style="fill:#2f2e41"
     d="m 544.3776,592.64212 c 0,0 56.2809,-20.37323 55.6165,4.20847 -0.6644,24.5817 -35.876,31.22539 -35.876,31.22539 l -10.6299,1.32874 -58.4646,1.99311 c 0,0 1.9931,-10.62992 -2.6575,-11.95866 0,0 15.2805,-3.98622 15.9449,-4.65059 0.6644,-0.66437 38.5335,-13.95177 41.1909,-14.61614 2.6575,-0.66437 10.63,-5.97934 16.6093,-5.315 0,0 6.6437,-5.315 13.9518,-3.98622 l -20.5955,1.32874 z"
     id="path1273" />
  <path
     inkscape:connector-curvature="0"
     style="opacity:0.1"
     d="m 544.3776,592.64212 c 0,0 56.2809,-20.37323 55.6165,4.20847 -0.6644,24.5817 -35.876,31.22539 -35.876,31.22539 l -10.6299,1.32874 -58.4646,1.99311 c 0,0 1.9931,-10.62992 -2.6575,-11.95866 0,0 15.2805,-3.98622 15.9449,-4.65059 0.6644,-0.66437 38.5335,-13.95177 41.1909,-14.61614 2.6575,-0.66437 10.63,-5.97934 16.6093,-5.315 0,0 6.6437,-5.315 13.9518,-3.98622 l -20.5955,1.32874 z"
     id="path1275" />
  <polygon
     transform="translate(0,62.86023)"
     style="fill:#2f2e41"
     points="584.714,533.99 588.036,525.354 576.741,523.36 554.035,527.347 544.187,530.004 534.434,533.081 541.53,549.271 "
     id="polygon1277" />
  <polygon
     transform="translate(0,62.86023)"
     style="opacity:0.1"
     points="584.714,533.99 588.036,525.354 576.741,523.36 554.035,527.347 544.187,530.004 534.434,533.081 541.53,549.271 "
     id="polygon1279" />
  <path
     inkscape:connector-curvature="0"
     style="fill:#2f2e41"
     d="m 442.5384,615.45294 c 0,0 12.623,15.94488 27.2392,19.9311 14.6161,3.98622 22.5885,-1.32874 22.5885,-1.32874 l -4.6506,-18.60236 -1.9931,-11.95866 -8.6368,-5.97934 -17.2736,-7.97245 -20.5954,-6.6437 c 0,0 -8.6368,-1.32874 -8.6368,0 0,1.32874 7.9724,21.25985 7.9724,21.25985 z"
     id="path1281" />
  <path
     inkscape:connector-curvature="0"
     style="fill:#f2f2f2"
     d="m 457.8189,624.08976 c 0,0 2.6575,19.26673 5.9794,20.59547 3.3218,1.32874 13.2874,-1.32874 15.9448,-2.65748 2.6575,-1.32874 11.6906,-7.45919 11.6906,-7.45919 0,0 -31.6217,-11.80754 -33.6148,-10.4788 z"
     id="path1283" />
  <polygon
     transform="translate(0,62.86023)"
     style="fill:#ffb9b9"
     points="530.9,565.216 529.571,580.496 511.964,576.22 518.277,563.223 "
     id="polygon1285" />
  <path
     inkscape:connector-curvature="0"
     style="fill:#f2f2f2"
     d="m 526.1856,630.33549 c 0,0 -5.9159,7.04167 0.063,11.02789 l 3.9862,3.32185 c 0,0 13.2874,2.65748 14.6162,3.98622 1.3287,1.32874 6.6437,-1.99311 6.6437,-1.99311 0,0 0.6643,-19.9311 0,-21.25984 -0.6644,-1.32874 -8.6368,-2.65748 -9.3012,-1.32874 -0.6644,1.32874 -8.6368,3.32185 -13.2874,1.99311 z"
     id="path1287" />
  <path
     inkscape:connector-curvature="0"
     style="fill:#2f2e41"
     d="m 473.0994,594.85747 c 0,0 -46.5059,-27.23917 -53.814,-17.27362 -7.308,9.96555 -15.2805,23.91733 5.9794,34.54725 21.2598,10.62992 87.6968,32.55413 87.6968,32.55413 0,0 9.9655,-15.28051 9.9655,-19.26673 0,0 -35.2116,-15.94488 -41.1909,-17.27362 -5.9793,-1.32874 -29.8967,-16.60926 -33.2185,-17.938 -3.3218,-1.32874 -7.9724,-5.315 -7.9724,-5.315 z"
     id="path1289" />
  <path
     inkscape:connector-curvature="0"
     style="fill:#ffff38;fill-opacity:1"
     d="m 459.812,512.47558 -2.6575,1.99311 c 0,0 -5.9793,15.28052 -6.6436,23.91733 -0.6644,8.63681 -8.6369,35.21161 -7.9725,38.53346 0.6644,3.32185 1.3288,5.97933 5.315,9.30118 0,0 5.315,-11.95866 14.6161,-9.96555 l 11.2943,-41.19094 z"
     id="path1291" />
  <path
     inkscape:connector-curvature="0"
     style="fill:#ffff38;fill-opacity:1"
     d="m 552.8238,512.47558 5.315,5.97933 c 0,0 3.3219,7.97245 3.3219,9.96556 0,1.99311 6.6437,31.22539 7.308,32.55413 0.6644,1.32874 3.3219,17.938 0,21.92421 -3.3218,3.98621 -9.3011,6.6437 -9.3011,6.6437 0,0 3.9862,-13.95177 -8.6369,-14.61614 l 1.3288,-5.315 -11.9587,-39.8622 z"
     id="path1293" />
  <path
     inkscape:connector-curvature="0"
     style="fill:#3f3d56"
     d="m 461.1407,558.21656 v 34.9949 a 8.41342,8.41342 0 0 0 8.2888,8.41251 l 73.1852,1.08423 a 8.41344,8.41344 0 0 0 8.5318,-8.08916 l 1.3461,-34.999 a 8.41344,8.41344 0 0 0 -8.2853,-8.73591 l -74.5312,-1.08016 a 8.41342,8.41342 0 0 0 -8.5354,8.41259 z"
     id="path1295" />
  <ellipse
     style="fill:#2f2e41"
     cx="509.89005"
     cy="464.59225"
     rx="22.884121"
     ry="12.32222"
     id="ellipse1297" />
  <circle
     style="fill:#f2f2f2"
     cx="505.98575"
     cy="576.58728"
     r="5.31496"
     id="circle1299" />
</svg>
