<?xml version="1.0" encoding="UTF-8" standalone="no"?>
<svg
   xmlns:dc="http://purl.org/dc/elements/1.1/"
   xmlns:cc="http://creativecommons.org/ns#"
   xmlns:rdf="http://www.w3.org/1999/02/22-rdf-syntax-ns#"
   xmlns:svg="http://www.w3.org/2000/svg"
   xmlns="http://www.w3.org/2000/svg"
   data-name="Layer 1"
   width="1324.3223"
   height="580.77118"
   viewBox="0 0 1324.3223 580.77121"
   version="1.1"
   id="svg157">
  <metadata
     id="metadata163">
    <rdf:RDF>
      <cc:Work
         rdf:about="">
        <dc:format>image/svg+xml</dc:format>
        <dc:type
           rdf:resource="http://purl.org/dc/dcmitype/StillImage" />
        <dc:title></dc:title>
      </cc:Work>
    </rdf:RDF>
  </metadata>
  <defs
     id="defs161" />
  <path
     style="fill:#f2f2f2;stroke-width:0.72898561"
     d="m 446.01035,553.89656 a 80.61332,80.61332 0 0 1 -3.49117,25.22363 c -0.0874,0.29669 -0.19208,0.59344 -0.29681,0.89026 h -51.38979 a 46.120885,46.120885 0 0 1 3.47379,-10.47345 c 4.27657,-9.07704 11.25889,-16.84488 18.15391,-24.56026 9.49595,-10.63062 18.76497,-21.17387 20.23129,-34.99881 a 79.394872,79.394872 0 0 1 8.93736,18.45076 21.686098,21.686098 0 0 0 -7.17429,4.39878 c -0.57606,0.54113 -1.18709,1.32666 -0.89026,2.07725 0.27924,0.62839 1.0473,0.83795 1.7281,0.97752 1.64085,0.3142 3.2817,0.62839 4.92255,0.92521 1.29171,0.26177 2.60088,0.50618 3.91006,0.75059 a 85.713668,85.713668 0 0 1 1.88526,16.33852 z"
     id="path2" />
  <path
     style="fill:#f2f2f2;stroke-width:0.72898561"
     d="m 489.17844,548.2409 c -8.23919,5.00981 -13.47592,12.76017 -17.75249,21.43564 a 21.926175,21.926175 0 0 0 -9.96729,5.23673 c -0.59353,0.54123 -1.20446,1.32666 -0.89027,2.07725 0.26189,0.62849 1.04743,0.83794 1.72812,0.97752 1.62337,0.31429 3.28169,0.62848 4.90506,0.9252 -0.15705,0.36661 -0.31419,0.75059 -0.47124,1.11719 h -54.46201 a 77.010492,77.010492 0 0 1 8.18676,-9.35626 c 0.64588,-0.64597 1.30919,-1.25688 1.98998,-1.88526 a 81.456786,81.456786 0 0 1 23.5653,-14.87236 82.901877,82.901877 0 0 1 43.16808,-5.65565 z"
     id="path4" />
  <path
     style="fill:#f2f2f2;stroke-width:0.72898561"
     d="m 421.34533,580.01043 h -48.49218 a 78.772786,78.772786 0 0 1 0.0699,-11.66044 83.384129,83.384129 0 0 1 34.64967,-60.62397 c -2.51363,8.95482 -1.22193,17.85732 1.39644,26.79467 -0.36651,0.12221 -0.73311,0.22693 -1.06478,0.36651 a 21.688051,21.688051 0 0 0 -7.17429,4.39889 c -0.57607,0.54113 -1.18699,1.32666 -0.89026,2.07724 0.26177,0.62838 1.0473,0.83785 1.7281,0.97751 1.64085,0.31419 3.28169,0.62839 4.90506,0.92521 1.30919,0.26179 2.61837,0.50617 3.92755,0.76806 0.6109,0.10471 1.22193,0.22683 1.83285,0.34904 0.0872,0.20944 0.13966,0.40154 0.22692,0.59354 3.07224,8.466 6.42372,17.0019 7.9948,25.67748 a 59.937284,59.937284 0 0 1 0.803,6.58076 c 0.0522,0.92521 0.0873,1.8503 0.0873,2.7755 z"
     id="path6" />
  <circle
     style="fill:#ffff38;fill-opacity:1;stroke-width:0.72898561"
     cx="50.277176"
     cy="137.10579"
     r="16.412062"
     id="circle8" />
  <path
     style="fill:#f0f0f0;stroke-width:0.72898561"
     d="m 87.011239,129.3353 a 8.1428714,8.1428714 0 0 0 -6.871492,-5.71073 c -0.03571,-0.005 -0.06952,10e-4 -0.104913,-6.7e-4 a 1.0237218,1.0237218 0 0 0 -0.140094,-0.0322 c -7.505517,-0.97004 -16.169358,2.61964 -19.297403,9.73516 a 7.9505649,7.9505649 0 0 0 -6.658834,-3.24486 8.1094474,8.1094474 0 0 0 -7.253243,5.84631 0.95140641,0.95140641 0 0 0 0.423706,1.04122 4.1586661,4.1586661 0 0 0 1.714718,0.87041 q 2.04456,0.43316 4.103678,0.79358 4.018,0.70315 8.077933,1.13697 a 120.11888,120.11888 0 0 0 16.545579,0.6254 c 1.839497,-0.0572 3.613412,-0.11836 5.298795,-0.93019 a 7.8843002,7.8843002 0 0 0 3.039723,-2.65262 8.9443108,8.9443108 0 0 0 1.121899,-7.47772 z"
     id="path10" />
  <path
     style="fill:#f0f0f0;stroke-width:0.72898561"
     d="m 52.899944,151.21802 a 8.1430681,8.1430681 0 0 0 -6.871482,-5.71069 c -0.03581,-0.005 -0.06963,0.001 -0.105018,-6.8e-4 a 1.0227668,1.0227668 0 0 0 -0.140009,-0.0323 c -7.505518,-0.97003 -16.169369,2.61961 -19.297467,9.73514 a 7.9502369,7.9502369 0 0 0 -6.658844,-3.24483 8.10944,8.10944 0 0 0 -7.253243,5.84631 0.95157408,0.95157408 0 0 0 0.423769,1.04123 4.158914,4.158914 0 0 0 1.714644,0.8704 q 2.044571,0.4331 4.103689,0.79359 4.017999,0.70309 8.078006,1.13696 a 120.12371,120.12371 0 0 0 16.545569,0.6254 c 1.839433,-0.0572 3.613338,-0.1184 5.298805,-0.93025 a 7.8852478,7.8852478 0 0 0 3.039723,-2.65259 8.9446097,8.9446097 0 0 0 1.121879,-7.47774 z"
     id="path12" />
  <path
     style="fill:#3f3d56;stroke-width:0.72898561"
     d="m 210.78498,405.95187 c -0.4154,0.60904 -1.50769,1.33408 -1.93346,1.93345 l 0.4542,-1.37733 -0.15482,-0.31898 -0.96673,-1.93345 -24.61286,-49.60271 -0.009,-0.009 -41.7241,-84.04721 v -0.009 l -0.95729,-1.92379 v -0.009 l -20.64913,-41.59821 -0.97617,-1.97213 q 1.10174,0.0291 2.20393,0.0871 l 0.98608,1.98178 20.59154,41.50154 0.009,0.009 0.95728,1.9238 v 0.009 l 40.66008,81.91068 v 0.009 l 0.95729,1.9238 v 0.009 l 24.61286,49.56404 0.32854,0.66702 z"
     id="path14" />
  <path
     style="fill:#3f3d56;stroke-width:0.72898561"
     d="M 208.03923,270.59599 H 23.839235 c 0.493278,-0.6477 0.99552,-1.29542 1.517586,-1.93346 H 206.52166 c 0.52206,0.63802 1.02429,1.2858 1.51757,1.93346 z"
     id="path16" />
  <path
     style="fill:#3f3d56;stroke-width:0.72898561"
     d="m 231.37614,352.51633 c -0.0581,0.64772 -0.12557,1.29542 -0.21287,1.93345 H 183.9773 v -1.93345 z"
     id="path18" />
  <path
     style="fill:#3f3d56;stroke-width:0.72898561"
     d="m 30.847998,262.2918 v 155.56551 c -0.667026,-0.70571 -1.30518,-1.42109 -1.933454,-2.13645 V 264.42824 c 0.628274,-0.71533 1.266428,-1.4307 1.933454,-2.13644 z"
     id="path20" />
  <rect
     style="fill:#3f3d56;stroke-width:0.72898561"
     x="29.881542"
     y="404.25436"
     width="179.87109"
     height="1.9334522"
     id="rect22" />
  <path
     style="fill:#cccccc;stroke-width:0.72898561"
     d="m 209.59583,405.95187 h 0.22234 v -0.31902 a 3.1732743,3.1732743 0 0 1 -0.22234,0.31902 z M 208.1071,270.35889 c -0.49329,-0.64772 -0.99553,-1.29542 -1.51759,-1.93345 a 115.79682,115.79682 0 0 0 -85.06242,-43.49302 q -1.10173,-0.058 -2.20393,-0.087 c -1.10223,-0.0291 -2.20439,-0.0483 -3.31603,-0.0483 a 115.6561,115.6561 0 0 0 -85.091244,37.25763 c -0.666995,0.70569 -1.305181,1.42108 -1.933455,2.13646 q -1.841656,2.07362 -3.557733,4.23427 c -0.522002,0.63804 -1.024308,1.28574 -1.517575,1.93345 a 115.74693,115.74693 0 0 0 5.075308,147.05834 c 0.628274,0.71536 1.26646,1.43076 1.933455,2.13645 A 115.85258,115.85258 0 0 0 210.34976,408.2333 c 0.42578,-0.59937 0.85109,-1.19873 1.26647,-1.80778 a 115.07773,115.07773 0 0 0 19.61486,-52.21286 c 0.0873,-0.63803 0.15483,-1.28575 0.21286,-1.93346 q 0.56502,-5.65533 0.57022,-11.47502 a 115.34836,115.34836 0 0 0 -23.90709,-70.44534 z m 21.18112,83.85381 a 113.05847,113.05847 0 0 1 -18.6581,50.23107 q -0.39156,0.59455 -0.8119,1.18908 a 3.1732743,3.1732743 0 0 1 -0.22233,0.31902 c -0.0675,0.10635 -0.14492,0.21268 -0.22235,0.31897 a 113.93984,113.93984 0 0 1 -178.457707,10.4213 c -0.666994,-0.73471 -1.314629,-1.4694 -1.933454,-2.22346 A 113.84368,113.84368 0 0 1 26.34323,270.35885 c 0.512628,-0.64772 1.024782,-1.29542 1.556296,-1.93346 0.34835,-0.43503 0.705695,-0.86038 1.082853,-1.28575 0.618825,-0.75405 1.26646,-1.48875 1.933454,-2.22347 a 113.74995,113.74995 0 0 1 85.091227,-38.18568 q 2.16097,0 4.29221,0.0871 c 0.7444,0.0193 1.47936,0.058 2.21378,0.0967 a 113.9277,113.9277 0 0 1 81.6015,41.51121 c 0.5315,0.63805 1.04413,1.28574 1.55629,1.93345 a 114.09261,114.09261 0 0 1 23.83961,81.92036 c -0.0679,0.64774 -0.13547,1.29548 -0.22234,1.93348 z m -19.69232,51.73917 h 0.22233 v -0.31902 a 3.1834145,3.1834145 0 0 1 -0.22239,0.31902 z"
     id="path24" />
  <path
     style="fill:#e5e5e5;stroke-width:0.72898561"
     d="m 101.38657,188.01125 q 0,0.79739 -0.0517,1.58151 a 23.957309,23.957309 0 0 1 -2.244729,8.69754 c -0.0095,0.0233 -0.0217,0.045 -0.03171,0.0667 -0.06004,0.12665 -0.121734,0.25327 -0.185029,0.37834 a 23.669375,23.669375 0 0 1 -1.274855,2.2498 24.074823,24.074823 0 0 1 -19.758201,11.11889 l 0.238381,13.70544 3.108021,-1.63651 0.554962,1.0549 -3.639641,1.9165 0.44494,25.45432 0.0053,0.33999 -2.403106,0.53493 0.0053,-0.34164 0.756612,-41.02622 a 24.026965,24.026965 0 0 1 -16.998502,-7.39603 c -0.151628,-0.15661 -0.301612,-0.31829 -0.448332,-0.47829 l -0.01675,-0.0183 a 24.125399,24.125399 0 0 1 -4.389575,-6.79269 c 0.02328,0.0266 0.04835,0.0517 0.07173,0.0783 -9.93048,-24.95536 -4.153027,-36.52417 11.428896,-31.06049 0.08342,-0.0417 0.168344,-0.0816 0.251674,-0.12331 a 24.123141,24.123141 0 0 1 31.252119,9.48743 c 0.146709,0.24664 0.288383,0.49829 0.425001,0.75159 a 23.973217,23.973217 0 0 1 2.899694,11.45737 z"
     id="path26" />
  <path
     style="fill:#e5e5e5;stroke-width:0.72898561"
     d="m 129.72499,166.78383 a 36.216733,36.216733 0 0 1 -3.64457,13.77585 c -4.06992,8.23653 -11.21398,14.48152 -20.11756,16.81137 a 0.08715752,0.08715752 0 0 1 -0.0483,0.009 30.531995,30.531995 0 0 1 -6.854115,0.97641 h -0.193362 c -0.241678,0.009 -0.483366,0.009 -0.725054,0.009 -0.164321,0 -0.328652,0 -0.493036,-0.009 A 31.576843,31.576843 0 0 1 66.559061,166.78365 v -0.34801 a 21.890651,21.890651 0 0 1 0.870078,-5.9551 c 0,-0.009 0.0095,-0.0193 0.0095,-0.029 a 20.635935,20.635935 0 0 1 5.500678,-8.8262 c 6.33211,-6.26437 16.357053,-10.19895 25.202568,-16.42467 19.373225,-13.63084 33.603415,-0.0676 31.582965,31.58295 z"
     id="path28" />
  <path
     d="m 126.08042,180.55968 c -4.06992,8.23653 -11.21398,14.48152 -20.11756,16.81137 a 0.08715752,0.08715752 0 0 1 -0.0483,0.009 31.093562,31.093562 0 0 1 -6.825096,0.90874 h -0.222381 q -0.609019,0.0145 -1.21809,0 a 31.629475,31.629475 0 0 1 -30.838526,-31.97931 32.357674,32.357674 0 0 1 0.61872,-5.82939 c 0,-0.009 0.0095,-0.0193 0.0095,-0.029 a 20.635935,20.635935 0 0 1 5.500678,-8.8262 31.582325,31.582325 0 0 0 24.873895,37.47998 c 0.299674,0.058 0.59936,0.11601 0.899045,0.16432 0.870015,0.14507 1.740085,0.25137 2.619845,0.31904 a 31.541341,31.541341 0 0 0 24.74819,-9.02924 z"
     style="opacity:0.2;isolation:isolate;stroke-width:0.72898561"
     id="path30" />
  <polygon
     transform="matrix(0.72898561,0,0,0.72898561,-2.8686078e-4,120.69371)"
     style="fill:#3f3d56"
     points="132.548,182.692 136.973,183.934 136.965,183.454 136.097,133.582 142.638,130.139 141.64,128.243 136.053,131.184 135.633,107.056 135.633,107.053 135.623,106.542 135.623,106.451 135.406,94.073 135.102,76.628 134.869,63.224 134.747,63.224 134.519,75.596 134.519,75.599 134.183,93.85 133.951,106.443 133.95,106.548 133.883,110.141 132.557,182.216 "
     id="polygon32" />
  <path
     d="m 214.26584,280.29315 c -20.04848,-4.01709 -40.1609,-7.66122 -60.51752,-9.89133 a 330.4066,330.4066 0 0 0 -58.167562,-1.682 c -17.521269,1.18186 -35.192625,3.95322 -51.652557,10.27103 -12.6838,4.86844 -26.204066,12.23417 -33.055355,24.5181 -6.6043333,11.84115 -4.028427,25.49631 3.162858,36.42139 8.652612,13.14514 22.145133,22.15292 36.172898,28.73661 15.971868,7.49616 33.055271,12.35514 50.160528,16.48751 8.67529,2.09589 17.39752,3.99034 26.12054,5.8753 1.81975,0.3932 2.59728,-2.40195 0.77097,-2.79657 C 109.66991,384.43212 92.028323,380.61862 74.874426,375.11624 59.00034,370.02434 42.75532,363.50165 29.755866,352.80966 19.239267,344.15986 9.2401518,331.52559 9.8608944,317.16082 10.48665,302.67982 22.636544,292.56901 34.545077,286.3456 49.427426,278.56809 66.335848,274.77958 82.904148,272.79955 a 293.82177,293.82177 0 0 1 57.124312,-0.7769 c 25.42176,1.93431 50.46751,6.42147 75.41745,11.44745"
     id="path34"
     style="stroke-width:0.72898561" />
  <path
     style="fill:#f1f1f1;stroke-width:0.72898561"
     d="m 120.14435,303.35561 c 8.4368,4.21684 13.57323,9.78614 13.57323,15.8947 0,13.15907 -23.81165,23.82661 -53.184443,23.82661 -12.770448,0 -24.486452,-2.01809 -33.654505,-5.379 9.73772,4.8672 23.873135,7.93184 39.611162,7.93184 29.372746,0 53.184446,-10.66753 53.184446,-23.8266 2e-5,-7.43793 -7.61077,-14.07815 -19.52989,-18.44755 z"
     id="path36" />
  <path
     style="fill:#f1f1f1;stroke-width:0.72898561"
     d="m 138.9108,312.3945 c 9.51993,4.75822 15.31586,11.04256 15.31586,17.93531 0,14.84849 -26.86866,26.88553 -60.012355,26.88553 -14.410036,0 -27.630059,-2.27718 -37.975154,-6.06953 10.987884,5.49206 26.938043,8.95015 44.696519,8.95015 33.14369,0 60.01235,-12.03702 60.01235,-26.88552 0,-8.39282 -8.58784,-15.88552 -22.03722,-20.81594 z"
     id="path38" />
  <path
     style="fill:#f1f1f1;stroke-width:0.72898561"
     d="m 112.96243,307.33699 c 5.94391,2.97093 9.56272,6.89464 9.56272,11.19825 0,9.27091 -16.77592,16.78648 -37.469791,16.78648 A 70.37934,70.37934 0 0 1 61.34488,331.53209 c 6.860485,3.42906 16.819258,5.58819 27.907093,5.58819 20.693867,0 37.469877,-7.51555 37.469877,-16.78647 -1e-4,-5.24023 -5.3621,-9.91845 -13.75942,-12.99682 z"
     id="path40" />
  <path
     style="fill:#3f3d56;stroke-width:0.72898561"
     d="m 81.310995,325.09114 c -12.222606,0 -18.166613,-3.35305 -21.000703,-6.16576 a 3.6917509,3.6917509 0 0 1 2.61233,-6.30426 h 42.640318 a 2.7913953,2.7913953 0 0 1 1.72813,4.98507 c -4.34366,3.41466 -12.376738,7.48495 -25.980075,7.48495 z"
     id="path42" />
  <path
     style="fill:#3f3d56;stroke-width:0.72898561"
     d="m 90.164943,282.17981 a 16.163549,16.163549 0 0 0 -11.643218,-3.18489 c 7.361779,1.81766 1.55243,11.99164 8.256663,22.54301 3.653608,5.75018 -3.451894,8.56922 -10.220749,9.34097 a 16.223407,16.223407 0 0 0 13.607304,-28.69912 z"
     id="path44" />
  <rect
     style="fill:#3f3d56;stroke-width:0.72898561"
     x="81.049477"
     y="276.87598"
     width="1.5699798"
     height="37.370823"
     id="rect46" />
  <path
     style="fill:#92e5ff;stroke-width:0.72898561"
     d="m 233.70738,287.36458 a 38.83689,38.83689 0 0 0 -54.11479,9.39143 c -12.35,17.53676 -24.74227,63.52251 -15.99456,90.1624 26.09227,-27.56066 66.17779,-30.42455 79.50076,-45.43905 14.23611,-16.04353 8.14534,-41.76477 -9.39141,-54.11478 z"
     id="path48" />
  <circle
     style="fill:#ffffff;stroke-width:0.72898561"
     id="af3c8991-f89c-43e0-a050-89c81726f2a6"
     data-name="b262ea8c-1946-46c9-a449-3a1996c39394"
     cx="210.8174"
     cy="314.40945"
     r="12.665985" />
  <circle
     style="fill:#92e5ff;stroke-width:0.72898561"
     id="a49e5b2e-c339-415c-b240-8977b61bd9a6"
     data-name="bcc29a3a-8123-4529-80aa-6f70df2823cf"
     cx="152.89082"
     cy="392.41641"
     r="8.2959509" />
  <path
     d="m 224.36855,311.48687 a 12.665747,12.665747 0 1 1 -21.8756,12.77273 12.664135,12.664135 0 0 0 19.28304,-15.91415 12.665731,12.665731 0 0 1 2.59256,3.14142 z"
     style="opacity:0.2;isolation:isolate;fill:#231f20;stroke-width:0.72898561"
     id="path52" />
  <path
     d="m 243.12264,341.53908 c -13.32294,15.0145 -53.40851,17.87837 -79.50077,45.43905 a 53.721866,53.721866 0 0 1 -1.87545,-7.71094 c 26.0793,-25.05517 63.93325,-28.22158 76.80567,-42.72826 11.52103,-12.98379 9.72758,-32.30486 -0.67002,-45.74859 14.26017,13.21867 18.28657,36.04639 5.24057,50.74874 z"
     style="opacity:0.2;isolation:isolate;fill:#231f20;stroke-width:0.72898561"
     id="path54" />
  <polygon
     transform="matrix(0.72898561,0,0,0.72898561,-2.8686078e-4,120.69371)"
     style="fill:#ffb6b6"
     points="520.882,567.209 520.879,617.234 507.91,617.234 501.74,567.209 "
     id="polygon56" />
  <path
     style="fill:#2f2e41;stroke-width:0.72898561"
     d="m 382.12443,579.8133 -30.48536,-10e-4 v -0.38559 a 11.866391,11.866391 0 0 1 11.86574,-11.86557 h 7.4e-4 l 5.56855,-4.22459 10.38967,4.2252 2.66119,1.1e-4 z"
     id="path58" />
  <polygon
     transform="matrix(0.72898561,0,0,0.72898561,-2.8686078e-4,120.69371)"
     style="fill:#ffb6b6"
     points="459.603,560.265 470.62,609.061 457.969,611.918 440.931,564.48 "
     id="polygon60" />
  <path
     style="fill:#2f2e41;stroke-width:0.72898561"
     d="m 347.44577,573.09917 -29.7368,6.71416 -0.0849,-0.37612 a 11.866428,11.866428 0 0 1 8.96058,-14.18788 l 7.3e-4,-1.6e-4 4.50118,-5.34746 11.0652,1.83284 2.59585,-0.58611 z"
     id="path62" />
  <path
     style="fill:#2f2e41;stroke-width:0.72898561"
     d="m 391.68781,347.70517 c 4.43274,13.36913 3.9641,27.88094 -1.06547,43.45605 l -2.15004,87.69196 c 3.55446,3.91174 5.78498,19.86169 0.30963,31.2828 -7.31157,15.25126 -2.27461,36.34186 -7.44301,46.45994 h -14.99125 l -3.68407,-41.19387 -3.24459,-4.64525 -0.49371,-37.15536 c -1.99104,-4.71415 -4.298,-9.38924 -0.2485,-14.85076 l -0.10798,-6.45387 -0.57558,-34.40174 -22.60866,33.06039 c -0.6423,7.48241 -4.46712,11.40306 -9.53095,13.93704 l 7.00204,30.90316 c 12.24618,10.482 9.25118,26.70411 9.45335,41.72218 l 4.01526,17.72124 -18.45064,1.64942 -8.14221,-24.03248 -9.15446,-14.80934 -15.92178,-59.20522 11.10343,-25.77013 4.53813,-10.53263 25.34339,-58.8199 z"
     id="path64" />
  <path
     style="fill:#ffb8b8;stroke-width:0.72898561"
     d="m 235.05679,300.02516 a 7.1442267,7.1442267 0 0 0 10.91135,-0.97486 l 24.44094,6.87023 -4.01165,-12.56832 -22.59451,-4.59724 a 7.182943,7.182943 0 0 0 -8.74615,11.27019 z"
     id="path66" />
  <path
     style="fill:#92e5ff;stroke-width:0.72898561"
     d="m 255.0463,289.87417 23.85591,-0.17496 v 0 a 39.881753,39.881753 0 0 1 19.7244,-0.44673 l 1.26594,0.2928 9.95542,-1.12911 c 5.93561,-11.86433 16.94888,-22.5909 31.73358,-32.47245 a 20.278317,20.278317 0 0 1 29.89589,5.00133 v 0 a 20.300135,20.300135 0 0 1 -5.44383,27.32598 l -45.05131,26.48742 a 26.411534,26.411534 0 0 1 -13.02745,3.64116 v 0 l -0.1093,0.0568 -25.69902,-9.6287 -13.22016,-1.68227 -17.9261,-5.20981 z"
     id="path68" />
  <circle
     style="fill:#ffb8b8;stroke-width:0.72898561"
     cx="350.75705"
     cy="211.69658"
     r="22.507839"
     id="circle70" />
  <path
     style="fill:#2f2e41;stroke-width:0.72898561"
     d="m 371.77722,225.97147 c 1.66823,-2.38038 2.85141,-6.1927 3.5504,-8.97919 a 27.027054,27.027054 0 0 0 -3.70092,-21.66485 8.2406647,8.2406647 0 0 0 -3.21228,-3.03168 c -1.36185,-0.60803 -3.15748,-0.46317 -4.1068,0.68711 a 7.3862791,7.3862791 0 0 0 -2.3466,-5.37881 13.017438,13.017438 0 0 0 -5.21736,-2.93301 21.678282,21.678282 0 0 0 -21.5805,5.33573 c -1.08607,1.10522 -0.69859,-4.41726 -1.90475,-3.4445 a 5.9993474,5.9993474 0 0 1 -4.2655,1.5217 c -1.54084,-0.1641 -4.37496,5.32674 -4.3913,3.77729 -1.62104,1.6244 -2.33521,8.47471 -1.82813,10.71286 0.50709,2.23813 8.05077,1.24893 10.21364,2.01601 1.43271,0.5081 2.98898,0.52528 4.47272,0.85604 a 11.151205,11.151205 0 0 1 8.26443,12.26453 14.773695,14.773695 0 0 1 3.40304,-3.30094 5.0004039,5.0004039 0 0 1 4.54193,-0.56701 5.617862,5.617862 0 0 1 2.76819,3.4878 c 0.49122,1.44715 0.6816,2.98344 1.18191,4.42748 1.46807,4.2371 2.22552,8.6849 6.31783,9.68956 3.22948,0.79278 5.56232,-2.22602 7.84005,-5.47612 z"
     id="path72" />
  <path
     style="fill:#92e5ff;stroke-width:0.72898561"
     d="m 393.60845,343.24316 -2.47127,-4.94251 c -3.02529,-18.74222 -6.01413,-36.2233 -1.95368,-51.94751 0.25514,-13.72681 -3.98755,-26.62256 -15.76795,-33.66456 l -5.31431,-3.17839 -2.68995,-6.82333 -24.77094,0.60505 -0.0729,8.94466 -8.87175,14.1496 v 0.0584 l 0.55402,76.99546 2.44939,7.94595 -3.69595,9.24352 1.96097,5.89751 48.83475,-7.80745 5.67879,-0.91122 a 10.145752,10.145752 0 0 0 1.88808,-0.82375 10.374763,10.374763 0 0 0 4.53428,-5.06646 c 0.0511,-0.12393 0.0948,-0.24056 0.13852,-0.36449 a 10.157554,10.157554 0 0 0 0.65609,-3.13464 10.4269,10.4269 0 0 0 -1.08619,-5.17576 z"
     id="path74" />
  <path
     style="opacity:0.2;stroke-width:0.72898561"
     d="m 394.69463,348.41899 a 10.157554,10.157554 0 0 1 -0.65608,3.13464 l -4.67281,5.43095 a 10.145752,10.145752 0 0 1 -1.88808,0.82375 l -5.67878,0.91123 8.21565,-15.4472 -18.05696,-39.53289 z"
     id="path76" />
  <path
     style="fill:#ffb8b8;stroke-width:0.72898561"
     d="m 414.34828,394.14401 a 7.5059711,7.5059711 0 0 1 -1.13396,-11.45353 l -11.88512,-23.87954 13.75943,1.6755 9.17686,22.41954 a 7.5466631,7.5466631 0 0 1 -9.91721,11.23804 z"
     id="path78" />
  <path
     style="fill:#92e5ff;stroke-width:0.72898561"
     d="m 366.1668,311.98075 9.01609,-1.24529 c 0,0 0.87054,13.59332 5.18327,15.65344 4.31273,2.06013 2.85887,2.39918 3.36742,4.57997 0.50857,2.18079 2.81001,5.47642 6.22627,6.97913 3.41626,1.50272 18.95562,39.28928 18.95562,39.28928 l 13.08476,-3.05135 a 42.09647,42.09647 0 0 1 -2.37326,-10.17702 c -0.45969,-5.25804 -6.41872,-17.66473 -8.38114,-19.50649 -1.96243,-1.84174 -1.18663,-5.08851 -2.20373,-9.4501 -1.01709,-4.36158 -0.31102,-0.31731 -2.00622,-7.58661 -1.69519,-7.26932 -20.75333,-50.8344 -21.55208,-57.54629 -0.79874,-6.71189 -10.15112,-10.66265 -10.15112,-10.66265 l -7.26932,1.69518 z"
     id="path80" />
  <path
     style="fill:#cccccc;stroke-width:0.69207191"
     id="a00e3c47-1fa9-4e2e-8ad1-93a2fdd4719a-76"
     data-name="f02c4e45-f306-4b42-b3ad-5ddd3016d7d2"
     d="m 230.24051,580.77119 h 269.41045 a 0.863015,0.863015 0 0 0 0,-1.72603 H 230.2405 a 0.863015,0.863015 0 1 0 0,1.72603 v 0 z" />
  <path
     id="path4712"
     d="m 684.72222,58.000004 h -52.3999 a 19.01722,19.01722 0 0 0 -19,19 v 56.810006 c -0.66992,-0.04 -1.33985,-0.1 -2,-0.18 a 66.99888,66.99888 0 1 1 73.10009,-77.630006 c 0.10991,0.65997 0.21001,1.33002 0.29981,2 z"
     style="fill:#f2f2f2" />
  <path
     id="path4714"
     d="M 1303.3223,56.000004 H 632.32236 a 21.023,21.023 0 0 0 -21,21 V 431.00001 a 21.023,21.023 0 0 0 21,21.00004 h 670.99994 a 21.023,21.023 0 0 0 21,-21.00004 V 77.000004 a 21.023,21.023 0 0 0 -21,-21 z m 19,375.000006 a 19.01722,19.01722 0 0 1 -19,19.00004 H 632.32236 a 19.01722,19.01722 0 0 1 -19,-19.00004 V 77.000004 a 19.01722,19.01722 0 0 1 19,-19 h 670.99994 a 19.01722,19.01722 0 0 1 19,19 z"
     style="fill:#3f3d56" />
  <path
     id="path4716"
     d="M 1270.3223,113.36964 H 665.32236 a 1,1 0 0 1 0,-2 h 604.99994 a 1,1 0 0 1 0,2 z"
     style="fill:#3f3d56" />
  <path
     id="path4718"
     d="m 836.32236,409.00001 a 1,1 0 0 1 -1,-1 V 79.000004 a 1,1 0 1 1 2,0 V 408.00001 a 1.00005,1.00005 0 0 1 -1,1 z"
     style="fill:#3f3d56" />
  <path
     id="path4720"
     d="m 987.32234,409.00001 a 1,1 0 0 1 -1,-1 V 79.000004 a 1,1 0 1 1 2,0 V 408.00001 a 1.00005,1.00005 0 0 1 -1,1 z"
     style="fill:#3f3d56" />
  <path
     id="path4722"
     d="m 1138.3223,409.00001 a 1,1 0 0 1 -1,-1 V 79.000004 a 1,1 0 1 1 2,0 V 408.00001 a 1.00005,1.00005 0 0 1 -1,1 z"
     style="fill:#3f3d56" />
  <path
     id="path4724"
     d="m 739.23801,216.58741 h -36.54 a 4.505,4.505 0 0 1 -4.5,-4.5 V 168.9678 a 4.505,4.505 0 0 1 4.5,-4.5 h 36.54 a 4.505,4.505 0 0 1 4.5,4.5 v 43.11963 a 4.505,4.505 0 0 1 -4.5,4.49998 z"
     style="fill:#92e5ff" />
  <path
     id="path4726"
     d="m 791.23801,339.58741 h -36.54 a 4.505,4.505 0 0 1 -4.5,-4.5 V 291.9678 a 4.505,4.505 0 0 1 4.5,-4.5 h 36.54 a 4.505,4.505 0 0 1 4.5,4.5 v 43.11963 a 4.505,4.505 0 0 1 -4.5,4.49998 z"
     style="fill:#92e5ff" />
  <path
     id="path4728"
     d="m 909.23814,242.58741 h -36.54 a 4.50508,4.50508 0 0 1 -4.5,-4.5 V 194.9678 a 4.50508,4.50508 0 0 1 4.5,-4.5 h 36.54 a 4.50508,4.50508 0 0 1 4.5,4.5 v 43.11963 a 4.50508,4.50508 0 0 1 -4.5,4.49998 z"
     style="fill:#92e5ff" />
  <path
     id="path4730"
     d="m 1062.2381,195.58741 h -36.54 a 4.50508,4.50508 0 0 1 -4.5,-4.5 V 147.9678 a 4.50508,4.50508 0 0 1 4.5,-4.5 h 36.54 a 4.50508,4.50508 0 0 1 4.5,4.5 v 43.11963 a 4.50508,4.50508 0 0 1 -4.5,4.49998 z"
     style="fill:#92e5ff" />
  <path
     id="path4732"
     d="m 1203.2381,195.58741 h -36.54 a 4.50508,4.50508 0 0 1 -4.5,-4.5 V 147.9678 a 4.50508,4.50508 0 0 1 4.5,-4.5 h 36.54 a 4.50508,4.50508 0 0 1 4.5,4.5 v 43.11963 a 4.50508,4.50508 0 0 1 -4.5,4.49998 z"
     style="fill:#92e5ff" />
  <path
     id="path4734"
     d="m 1268.2381,207.58741 h -36.54 a 4.50508,4.50508 0 0 1 -4.5,-4.5 V 159.9678 a 4.50508,4.50508 0 0 1 4.5,-4.5 h 36.54 a 4.50508,4.50508 0 0 1 4.5,4.5 v 43.11963 a 4.50508,4.50508 0 0 1 -4.5,4.49998 z"
     style="fill:#e6e6e6" />
  <path
     id="path4736"
     d="m 1239.2381,284.58741 h -36.54 a 4.50508,4.50508 0 0 1 -4.5,-4.5 V 236.9678 a 4.50508,4.50508 0 0 1 4.5,-4.5 h 36.54 a 4.50508,4.50508 0 0 1 4.5,4.5 v 43.11963 a 4.50508,4.50508 0 0 1 -4.5,4.49998 z"
     style="fill:#e6e6e6" />
  <path
     id="path4738"
     d="m 1115.2381,268.58741 h -36.54 a 4.50508,4.50508 0 0 1 -4.5,-4.5 V 220.9678 a 4.50508,4.50508 0 0 1 4.5,-4.5 h 36.54 a 4.50508,4.50508 0 0 1 4.5,4.5 v 43.11963 a 4.50508,4.50508 0 0 1 -4.5,4.49998 z"
     style="fill:#ffff38;fill-opacity:1" />
  <path
     id="path4740"
     d="m 1044.2381,284.58741 h -36.54 a 4.50508,4.50508 0 0 1 -4.5,-4.5 V 236.9678 a 4.50508,4.50508 0 0 1 4.5,-4.5 h 36.54 a 4.50508,4.50508 0 0 1 4.5,4.5 v 43.11963 a 4.50508,4.50508 0 0 1 -4.5,4.49998 z"
     style="fill:#e6e6e6" />
  <path
     id="path4742"
     d="m 891.23814,352.58741 h -36.54 a 4.50508,4.50508 0 0 1 -4.5,-4.5 V 304.9678 a 4.50508,4.50508 0 0 1 4.5,-4.5 h 36.54 a 4.50508,4.50508 0 0 1 4.5,4.5 v 43.11963 a 4.50508,4.50508 0 0 1 -4.5,4.49998 z"
     style="fill:#e6e6e6" />
  <path
     id="path4744"
     d="m 706.23801,295.58741 h -36.54 a 4.505,4.505 0 0 1 -4.5,-4.5 V 247.9678 a 4.505,4.505 0 0 1 4.5,-4.5 h 36.54 a 4.505,4.505 0 0 1 4.5,4.5 v 43.11963 a 4.505,4.505 0 0 1 -4.5,4.49998 z"
     style="fill:#ffff38;fill-opacity:1" />
  <path
     id="path4746"
     d="m 809.23801,216.58741 h -36.54 a 4.505,4.505 0 0 1 -4.5,-4.5 V 168.9678 a 4.505,4.505 0 0 1 4.5,-4.5 h 36.54 a 4.505,4.505 0 0 1 4.5,4.5 v 43.11963 a 4.505,4.505 0 0 1 -4.5,4.49998 z"
     style="fill:#e6e6e6" />
  <path
     id="path4748"
     d="m 779.32236,97.000007 h -57 a 4.0000015,4.0000015 0 0 1 0,-8.000003 h 57 a 4.0000015,4.0000015 0 0 1 0,8.000003 z"
     style="fill:#cccccc" />
  <path
     id="path4750"
     d="m 940.32234,97.000007 h -57 a 4.0000015,4.0000015 0 0 1 0,-8.000003 h 57 a 4.0000015,4.0000015 0 0 1 0,8.000003 z"
     style="fill:#cccccc" />
  <path
     id="path4752"
     d="m 1091.3223,97.000007 h -57 a 4.0000015,4.0000015 0 0 1 0,-8.000003 h 57 a 4.0000015,4.0000015 0 0 1 0,8.000003 z"
     style="fill:#cccccc" />
  <path
     id="path4754"
     d="m 1232.3223,97.000007 h -57 a 4.0000015,4.0000015 0 0 1 0,-8.000003 h 57 a 4.0000015,4.0000015 0 0 1 0,8.000003 z"
     style="fill:#cccccc" />
  <path
     id="path4756"
     d="m 651.65529,389.89136 a 10.05577,10.05577 0 0 1 -8.70007,-12.73046 l -25.63286,-23.8611 13.55277,-3.43814 25.20573,20.44382 a 10.11027,10.11027 0 0 1 -4.42557,19.58585 z"
     style="fill:#ffb8b8" />
  <polygon
     id="polygon4758"
     points="184.402,518.965 184.404,566.253 196.664,566.253 202.496,518.965 "
     style="fill:#ffb8b8"
     transform="translate(502.64608,7.7613078e-6)" />
  <path
     id="path4760"
     d="M 722.95413,577.63555 H 684.4234 l -6.8e-4,-14.8868 23.64388,-10e-4 a 14.88686,14.88686 0 0 1 14.88754,14.8861 v 0 z"
     style="fill:#2f2e41" />
  <polygon
     id="polygon4762"
     points="112.509,511.705 100.345,557.401 112.193,560.555 129.994,516.359 "
     style="fill:#ffb8b8"
     transform="translate(502.64608,7.7613078e-6)" />
  <path
     id="path4764"
     d="m 634.75906,577.63945 -37.23417,-9.9109 3.8292,-14.3859 22.84825,6.0817 a 14.886819,14.886819 0 0 1 10.55672,18.2151 z"
     style="fill:#2f2e41;stroke-width:0.9999972" />
  <path
     id="path4766"
     d="m 702.60703,557.29985 h -18.70728 a 4.72981,4.72981 0 0 1 -4.72607,-4.293 L 667.81722,435.0752 a 3.74767,3.74767 0 0 0 -7.321,-0.71484 L 627.5228,544.55955 a 4.74216,4.74216 0 0 1 -5.7,3.2461 l -17.40308,-4.3515 a 4.74747,4.74747 0 0 1 -3.44727,-5.7871 c 0.28418,-1.1104 28.41065,-111.02837 28.65625,-112.15825 6.37281,-46.96778 13.99707,-59.55371 18.093,-66.31445 0.33911,-0.55958 0.65064,-1.07422 0.93115,-1.56055 0.35108,-0.6084 2.51245,-6.64453 3.88355,-10.56445 a 4.79,4.79 0 0 1 2.43506,-2.97754 c 17.21069,-8.80176 37.34741,-2.709 43.10913,-0.63184 a 4.6821,4.6821 0 0 1 2.33813,1.81543 c 17.28467,26.07129 8.80225,177.49125 6.92627,207.58105 a 4.75127,4.75127 0 0 1 -4.73796,4.4434 z"
     style="fill:#2f2e41" />
  <circle
     id="circle4768"
     r="24.561029"
     cy="234.02422"
     cx="654.33026"
     style="fill:#ffb8b8" />
  <path
     id="path4770"
     d="m 651.72787,351.8379 -0.17651,-0.1709 c -0.33105,-0.32031 -33.05566,-32.37988 -28.82056,-62.02441 1.81128,-12.67969 12.07032,-20.78125 29.66773,-23.43067 a 27.13473,27.13473 0 0 1 29.99976,19.1211 l 17.3999,59.48437 z"
     style="fill:#cccccc" />
  <path
     id="path4772"
     d="m 634.97885,374.64063 -23.31836,-23.17089 a 13.13671,13.13671 0 0 1 -3.47973,-12.39161 l 11.28857,-45.91894 a 10.35411,10.35411 0 0 1 13.17989,-7.40039 10.41072,10.41072 0 0 1 6.80908,12.79394 l -11.88448,40.39649 19.21826,20.63672 z"
     style="fill:#cccccc" />
  <path
     id="path4774"
     d="m 760.05041,295.56243 a 10.05577,10.05577 0 0 1 -14.88374,4.02868 l -31.12945,16.13447 1.37589,-13.70578 27.59693,-17.07886 a 10.11028,10.11028 0 0 1 17.04041,10.62149 z"
     style="fill:#ffb8b8" />
  <path
     id="path4776"
     d="m 741.76722,305.76462 -30.34625,13.11355 a 12.80885,12.80885 0 0 1 -12.477,-1.33846 l -38.58893,-27.64906 a 10.355,10.355 0 0 1 -1.97354,-14.98585 10.41025,10.41025 0 0 1 14.40861,-1.568 l 33.08845,26.042 26.30022,-10.17517 z"
     style="fill:#cccccc" />
  <path
     id="path4778"
     d="m 658.402,241.89454 c 3.03,-3.79642 8.69082,-4.00051 12.85285,-6.50478 5.45181,-3.28033 7.70574,-10.61077 5.94888,-16.726 -1.75686,-6.11523 -6.93808,-10.881 -12.8784,-13.16029 -5.94032,-2.27929 -12.5494,-2.30748 -18.81589,-1.20568 -9.33021,1.64048 -18.51612,5.99512 -24.20655,13.56895 -5.69043,7.57383 -7.13858,18.66583 -1.98149,26.61243 2.37026,3.65236 6.02921,6.66714 6.97549,10.91712 1.2423,5.57954 -2.6714,10.96083 -6.86421,14.846 -4.77673,4.42628 -10.257,8.1334 -14.44192,13.12294 -4.18492,4.98954 -6.97564,11.80621 -5.066,18.03215 1.6,5.21635 6.25591,9.05948 11.36143,10.98408 5.10552,1.9246 10.66607,2.2027 16.12124,2.30939 5.29718,0.10361 10.92363,-0.0252 15.386,-2.88141 4.77715,-3.05764 7.32781,-8.8583 7.51626,-14.52705 0.18845,-5.66875 -1.70587,-11.22252 -4.24464,-16.2945 -1.51323,-3.02314 -3.27267,-5.95256 -4.27818,-9.18027 -1.00551,-3.22771 -1.1797,-6.89016 0.43058,-9.86274 1.69267,-3.12465 5.1171,-5.009 8.6041,-5.69419 0.18117,-0.0356 0.37286,-0.0674 0.57335,-0.0957 a 7.39847,7.39847 0 0 0 6.33328,-8.62766 c -0.39726,-2.21434 -0.36296,-4.33384 0.67382,-5.63279 z"
     style="fill:#2f2e41" />
  <polygon
     id="polygon4780"
     points="483.231,520.013 483.229,567.3 470.969,567.3 465.137,520.012 "
     style="fill:#a0616a"
     transform="translate(502.64608,7.7613078e-6)" />
  <path
     id="path4782"
     d="m 964.85804,563.79685 h 23.6439 v 14.8869 h -38.5308 v 0 a 14.88687,14.88687 0 0 1 14.8869,-14.8869 z"
     style="fill:#2f2e41" />
  <polygon
     id="polygon4784"
     points="552.538,510.399 572.184,553.413 561.033,558.506 536.079,517.917 "
     style="fill:#a0616a"
     transform="translate(502.64608,7.7613078e-6)" />
  <path
     id="path4786"
     d="m 1054.2578,558.95835 21.5067,-9.8232 6.185,13.5413 -35.0479,16.0081 v 0 a 14.88685,14.88685 0 0 1 7.3562,-19.7262 z"
     style="fill:#2f2e41" />
  <path
     id="path4788"
     d="m 1039.1276,407.857 a 10.05579,10.05579 0 0 0 0.8011,-15.39851 l 14.4116,-32.69992 -18.3087,3.10281 -10.8785,30.57671 a 10.11028,10.11028 0 0 0 13.9745,14.41891 z"
     style="fill:#a0616a" />
  <path
     id="path4790"
     d="m 985.09364,554.83135 h -11.7119 a 4.51686,4.51686 0 0 1 -4.4883,-4.1738 l -6.387,-170.5586 a 4.49977,4.49977 0 0 1 4.9253,-4.80468 l 67.73476,7.19336 a 4.5013,4.5013 0 0 1 4.0623,4.39355 l 1.4194,75.23537 a 3.49205,3.49205 0 0 0 0.2339,1.1933 l 27.7852,72.0528 a 4.49892,4.49892 0 0 1 -2.6431,5.8408 l -11.8684,4.373 a 4.50108,4.50108 0 0 1 -5.5574,-2.1641 l -34.1325,-66.3691 a 4.475,4.475 0 0 1 -0.4043,-1.1426 l -5.8309,-28.0937 a 3.49992,3.49992 0 0 0 -6.904,0.3125 l -11.76216,102.7236 a 4.499,4.499 0 0 1 -4.4709,3.9883 z"
     style="fill:#2f2e41" />
  <circle
     id="circle4792"
     r="24.561029"
     cy="222.17784"
     cx="990.92554"
     style="fill:#a0616a" />
  <path
     id="path4794"
     d="M 1007.7691,395.69435 A 87.66432,87.66432 0 0 1 960.89634,381.4961 l -0.239,-0.165 0.025,-0.28955 9.395,-109.416 a 15.4205,15.4205 0 0 1 14.5989,-14.06153 c 12.176,-0.55957 28.53096,0.146 37.28586,6.66651 13.2307,9.85449 19.6076,24.69385 17.4956,40.7124 -4.3802,33.21875 0.5817,78.0293 1.1618,83.0293 l 0.042,0.36035 -0.3296,0.15137 a 77.26611,77.26611 0 0 1 -32.5625,7.2104 z"
     style="fill:#92e5ff" />
  <path
     id="path4796"
     d="m 1040.5059,388.15772 a 5.007,5.007 0 0 1 -3.6806,-1.62207 l -5.3726,-5.86132 a 5.02581,5.02581 0 0 1 -1.1091,-4.79493 l 12.2507,-41.46386 -18.6399,-39.14356 a 8.8323,8.8323 0 0 1 -0.6038,-5.87939 8.809,8.809 0 0 1 16.3133,-2.084 l 25.2947,41.042 a 11.95092,11.95092 0 0 1 0.72,11.19824 l -20.6099,45.665 a 4.98754,4.98754 0 0 1 -3.7664,2.87988 5.05373,5.05373 0 0 1 -0.7964,0.064 z"
     style="fill:#92e5ff" />
  <path
     id="path4798"
     d="m 867.38384,308.95258 a 10.05577,10.05577 0 0 0 14.9986,-3.57767 l 35.438,4.59612 -8.1442,-16.68847 -32.404,-1.806 a 10.11028,10.11028 0 0 0 -9.8884,17.476 z"
     style="fill:#a0616a" />
  <path
     id="path4800"
     d="m 945.49544,318.0669 a 13.42535,13.42535 0 0 1 -1.8447,-0.12744 l -55.751,-7.73242 a 5.54112,5.54112 0 0 1 -4.2507,-3.11133 5.65746,5.65746 0 0 1 -0.3179,-0.8291 h -3e-4 a 5.56408,5.56408 0 0 1 0.575,-4.43164 l 4.6136,-7.64893 a 5.58411,5.58411 0 0 1 4.7558,-2.686 h 0.01 l 48.596,0.0557 36.2939,-32.51709 a 9.86788,9.86788 0 0 1 6.1072,-2.49951 9.83491,9.83491 0 0 1 7.3726,16.81543 l -36.2156,40.27823 a 13.364,13.364 0 0 1 -9.9419,4.4341 z"
     style="fill:#92e5ff" />
  <path
     id="path4802"
     d="m 993.71774,244.02799 c 2.2445,-5.19457 4.1438,-12.11253 -0.1612,-15.78514 -2.4972,-2.13029 -6.0939,-2.13469 -9.3655,-2.39972 -9.2173,-0.74668 -18.7055,-4.98771 -23.2108,-13.06356 -4.5052,-8.07585 -1.9892,-20.08442 6.5103,-23.728 5.7292,-2.456 12.2974,-0.78291 18.2944,0.91767 l 18.00576,5.10593 c 5.35,1.51712 10.9674,3.19025 14.819,7.20149 6.1427,6.39729 5.6835,17.21166 0.8046,24.618 -4.8789,7.40634 -12.2264,15.13079 -20.63766,17.94281 z"
     style="fill:#2f2e41" />
  <path
     id="path4804"
     d="M 1242.1307,579.00955 H 503.83678 a 1.19069,1.19069 0 1 1 0,-2.3813 h 738.29392 a 1.19069,1.19069 0 1 1 0,2.3813 z"
     style="fill:#3f3d56" />
</svg>
