<?xml version="1.0" encoding="UTF-8" standalone="no"?>
<svg
   xmlns:dc="http://purl.org/dc/elements/1.1/"
   xmlns:cc="http://creativecommons.org/ns#"
   xmlns:rdf="http://www.w3.org/1999/02/22-rdf-syntax-ns#"
   xmlns:svg="http://www.w3.org/2000/svg"
   xmlns="http://www.w3.org/2000/svg"
   id="svg157"
   version="1.1"
   viewBox="0 0 1152.6488 463.88491"
   height="463.88489"
   width="1152.6488"
   data-name="Layer 1">
  <metadata
     id="metadata163">
    <rdf:RDF>
      <cc:Work
         rdf:about="">
        <dc:format>image/svg+xml</dc:format>
        <dc:type
           rdf:resource="http://purl.org/dc/dcmitype/StillImage" />
        <dc:title></dc:title>
      </cc:Work>
    </rdf:RDF>
  </metadata>
  <defs
     id="defs161" />
  <path
     style="fill:#f2f2f2"
     id="path91"
     d="M 636.68364,460.84403 A 141.78089,141.78089 0 0 1 530.63086,321.45011 c 0.1219,-7.912 0.95378,-15.99006 4.27976,-23.1701 3.32598,-7.18004 9.50394,-13.39013 17.23186,-15.09142 8.43389,-1.8567 17.33349,1.93874 23.61873,7.861 6.28524,5.92226 10.40636,13.736 14.198,21.495 22.83782,46.734 40.18948,96.87978 46.6859,148.48823 z" />
  <path
     style="fill:#ffffff"
     id="path93"
     d="m 548.31631,284.74785 16.006,36.36706 16.006,36.36706 c 5.06915,11.51754 10.12863,23.04012 15.36814,34.48152 5.1935,11.34091 10.56495,22.6034 16.29525,33.684 5.72218,11.06486 11.80377,21.94912 18.40506,32.51522 q 1.23309,1.9737 2.49042,3.93206 c 0.58008,0.90425 2.03014,0.0655 1.44595,-0.84519 -6.72793,-10.48763 -12.92723,-21.30541 -18.74161,-32.32388 -5.82064,-11.03036 -11.2609,-22.25747 -16.50019,-33.57425 -5.26729,-11.37725 -10.332,-22.84667 -15.38326,-34.321 q -7.97541,-18.11688 -15.948,-36.235 l -16.00605,-36.36706 -1.99187,-4.52568 c -0.43316,-0.98418 -1.87645,-0.133 -1.44595,0.84519 z" />
  <path
     style="fill:#f2f2f2"
     id="path95"
     d="m 630.00669,461.09681 a 82.96676,82.96676 0 0 1 -92.692,-43.74066 c -2.07267,-4.14071 -3.82153,-8.55926 -4.03308,-13.1849 -0.21155,-4.62564 1.31945,-9.51764 4.87237,-12.48717 3.87749,-3.2408 9.52264,-3.67283 14.38463,-2.29486 4.86199,1.37797 9.111,4.32217 13.17418,7.32689 24.47345,18.09816 47.01962,39.44868 64.3248,64.48912 z" />
  <path
     style="fill:#ffffff"
     id="path97"
     d="m 536.58847,393.52655 18.12784,14.56012 18.12782,14.56013 c 5.74112,4.61123 11.47858,9.22769 17.2876,13.75339 5.758,4.486 11.58722,8.88316 17.55363,13.089 5.958,4.19991 12.05376,8.209 18.33349,11.91267 q 1.173,0.69183 2.35449,1.36914 c 0.54528,0.31287 1.07169,-0.51407 0.52254,-0.82916 -6.32429,-3.62871 -12.46326,-7.57153 -18.45656,-11.72247 -5.99977,-4.15542 -11.85515,-8.51568 -17.63042,-12.97675 -5.80611,-4.4849 -11.53195,-9.07235 -17.25211,-13.666 q -9.03158,-7.25292 -18.062,-14.50724 l -18.12787,-14.56006 -2.25591,-1.8119 c -0.49058,-0.394 -1.0101,0.43755 -0.52254,0.82916 z" />
  <path
     style="fill:#3f3d56;stroke-width:0.78874689"
     id="path99"
     d="M 1147.1276,0 H 763.00789 a 5.5273647,5.5273647 0 0 0 -5.52123,5.521228 V 265.8077 a 5.5273726,5.5273726 0 0 0 5.52123,5.52123 h 384.11971 a 5.5273647,5.5273647 0 0 0 5.5212,-5.52123 V 5.521228 A 5.5273647,5.5273647 0 0 0 1147.1276,0 Z m 3.9437,265.8077 a 3.9453119,3.9453119 0 0 1 -3.9437,3.94374 H 763.00789 a 3.9453119,3.9453119 0 0 1 -3.94374,-3.94374 V 5.521228 a 3.9453119,3.9453119 0 0 1 3.94374,-3.943734 h 384.11971 a 3.9453119,3.9453119 0 0 1 3.9437,3.943734 z" />
  <rect
     style="fill:#3f3d56;stroke-width:0.78874689"
     id="rect101"
     height="1.5774938"
     width="393.58469"
     y="22.116444"
     x="758.27545" />
  <circle
     style="fill:#3f3d56;stroke-width:0.78874689"
     id="circle103"
     r="4.7324815"
     cy="11.831203"
     cx="771.68414" />
  <circle
     style="fill:#3f3d56;stroke-width:0.78874689"
     id="circle105"
     r="4.7324815"
     cy="11.831203"
     cx="785.29004" />
  <circle
     style="fill:#3f3d56;stroke-width:0.78874689"
     id="circle107"
     r="4.7324815"
     cy="11.831203"
     cx="798.89587" />
  <path
     style="fill:#cccccc;stroke-width:0.78874689"
     id="path109"
     d="m 854.3985,58.761641 h -66.25474 a 5.5212282,5.5212282 0 1 1 0,-11.04245 h 66.25474 a 5.5212282,5.5212282 0 0 1 0,11.04245 z" />
  <path
     style="fill:#cccccc;stroke-width:0.78874689"
     id="path111"
     d="M 945.10439,85.579041 H 788.14376 a 5.52123,5.52123 0 0 1 0,-11.04246 h 156.96063 a 5.52123,5.52123 0 0 1 0,11.04246 z" />
  <path
     style="fill:#92e5ff;stroke-width:0.78874689"
     id="path113"
     d="M 995.75757,96.245271 A 71.778736,71.778736 0 0 0 1054.9482,208.62356 V 145.96551 Z" />
  <path
     style="fill:#cccccc;stroke-width:0.78874689"
     id="path115"
     d="m 1054.9482,65.071621 a 71.693937,71.693937 0 0 0 -59.19063,31.17364 l 59.19063,49.720239 z" />
  <path
     style="fill:#3f3d56;stroke-width:0.78874689"
     id="path117"
     d="m 1054.9482,209.4123 h -0.7887 V 64.282871 h 0.7887 a 72.564715,72.564715 0 1 1 0,145.129429 z M 1055.737,65.864601 V 207.83057 a 70.98737,70.98737 0 0 0 0,-141.965969 z" />
  <path
     style="fill:#cccccc;stroke-width:0.78874689"
     id="path119"
     d="m 833.89108,238.99031 h -13.4087 a 3.5533678,3.5533678 0 0 1 -3.54936,-3.54936 v -38.6486 a 3.5533678,3.5533678 0 0 1 3.54936,-3.54936 h 13.4087 a 3.55336,3.55336 0 0 1 3.54936,3.54936 v 38.6486 a 3.5533678,3.5533678 0 0 1 -3.54936,3.54936 z" />
  <path
     style="fill:#ffff38;stroke-width:0.78874689;fill-opacity:1"
     id="path121"
     d="m 873.32843,238.99031 h -13.4087 a 3.5533678,3.5533678 0 0 1 -3.54936,-3.54936 v -56.78978 a 3.5533678,3.5533678 0 0 1 3.54936,-3.54936 h 13.4087 a 3.55336,3.55336 0 0 1 3.54936,3.54936 v 56.78978 a 3.5533678,3.5533678 0 0 1 -3.54936,3.54936 z" />
  <path
     style="fill:#92e5ff;stroke-width:0.78874689"
     id="path123"
     d="m 912.76577,238.99031 h -13.4087 a 3.5533678,3.5533678 0 0 1 -3.54936,-3.54936 v -72.56472 a 3.5533678,3.5533678 0 0 1 3.54936,-3.54936 h 13.4087 a 3.55336,3.55336 0 0 1 3.54936,3.54936 v 72.56472 a 3.5533678,3.5533678 0 0 1 -3.54936,3.54936 z" />
  <path
     style="fill:#3f3d56;stroke-width:0.78874689"
     id="path125"
     d="m 833.89108,239.38468 h -13.4087 a 3.948254,3.948254 0 0 1 -3.94373,-3.94373 v -86.76216 a 3.948254,3.948254 0 0 1 3.94373,-3.94374 h 13.4087 a 3.948254,3.948254 0 0 1 3.94374,3.94374 v 86.76216 a 3.948254,3.948254 0 0 1 -3.94374,3.94373 z m -13.4087,-93.07213 a 2.3688278,2.3688278 0 0 0 -2.36624,2.36624 v 86.76216 a 2.3688356,2.3688356 0 0 0 2.36624,2.36624 h 13.4087 a 2.3688278,2.3688278 0 0 0 2.36624,-2.36624 v -86.76216 a 2.3688278,2.3688278 0 0 0 -2.36624,-2.36624 z" />
  <path
     style="fill:#3f3d56;stroke-width:0.78874689"
     id="path127"
     d="m 873.32843,239.38468 h -13.4087 a 3.948254,3.948254 0 0 1 -3.94374,-3.94373 v -86.76216 a 3.948254,3.948254 0 0 1 3.94374,-3.94374 h 13.4087 a 3.948254,3.948254 0 0 1 3.94373,3.94374 v 86.76216 a 3.948254,3.948254 0 0 1 -3.94373,3.94373 z m -13.4087,-93.07213 a 2.3688278,2.3688278 0 0 0 -2.36624,2.36624 v 86.76216 a 2.3688356,2.3688356 0 0 0 2.36624,2.36624 h 13.4087 a 2.3688278,2.3688278 0 0 0 2.36624,-2.36624 v -86.76216 a 2.3688278,2.3688278 0 0 0 -2.36624,-2.36624 z" />
  <path
     style="fill:#3f3d56;stroke-width:0.78874689"
     id="path129"
     d="m 912.76577,239.38468 h -13.4087 a 3.948254,3.948254 0 0 1 -3.94373,-3.94373 v -86.76216 a 3.948254,3.948254 0 0 1 3.94373,-3.94374 h 13.4087 a 3.948254,3.948254 0 0 1 3.94373,3.94374 v 86.76216 a 3.948254,3.948254 0 0 1 -3.94373,3.94373 z m -13.4087,-93.07213 a 2.3688278,2.3688278 0 0 0 -2.36624,2.36624 v 86.76216 a 2.3688356,2.3688356 0 0 0 2.36624,2.36624 h 13.4087 a 2.3688278,2.3688278 0 0 0 2.36624,-2.36624 v -86.76216 a 2.3688278,2.3688278 0 0 0 -2.36624,-2.36624 z" />
  <path
     style="fill:#ffb8b8"
     id="path131"
     d="m 643.046,291.4465 a 10.05577,10.05577 0 0 0 -8.78482,-12.67208 l -8.59987,-34.68465 -12.58652,13.65332 10.09618,30.84389 a 10.11028,10.11028 0 0 0 19.875,2.85952 z" />
  <path
     style="fill:#2f2e41"
     id="path133"
     d="m 619.98931,280.77895 a 4.50494,4.50494 0 0 1 -2.5174,-2.66936 l -14.35616,-44.17817 a 46.37348,46.37348 0 0 1 0.76364,-32.63527 l 13.83846,-34.35489 a 14.49652,14.49652 0 1 1 28.5985,4.76667 l -19.09249,55.55769 6.683,45.23868 a 4.51467,4.51467 0 0 1 -2.5399,4.50394 l -7.70875,3.67825 a 4.50568,4.50568 0 0 1 -2.65851,0.38041 4.45465,4.45465 0 0 1 -1.01039,-0.28795 z" />
  <polygon
     transform="translate(530.61459,-67.556049)"
     style="fill:#ffb8b8"
     id="polygon135"
     points="160.343,518.443 172.603,518.442 178.435,471.154 160.341,471.155 " />
  <path
     style="fill:#2f2e41"
     id="path137"
     d="m 726.86184,462.26936 -38.53073,0.002 -6.8e-4,-14.88687 23.64387,-0.001 a 14.88686,14.88686 0 0 1 14.88754,14.88618 v 0 z" />
  <polygon
     transform="translate(530.61459,-67.556049)"
     style="fill:#ffb8b8"
     id="polygon139"
     points="99.343,518.443 111.603,518.442 117.435,471.154 99.341,471.155 " />
  <path
     style="fill:#2f2e41"
     id="path141"
     d="m 665.86184,462.26936 -38.53073,0.002 -6.8e-4,-14.88687 23.64387,-0.001 a 14.88686,14.88686 0 0 1 14.88754,14.88618 v 0 z" />
  <path
     style="fill:#2f2e41"
     id="path143"
     d="m 694.3088,258.1552 10.77686,85.38587 q 2.22236,17.60784 3.10973,35.34585 l 2.90343,58.06853 a 4,4 0 0 1 -3.995,4.19975 h -16.35634 a 4,4 0 0 1 -3.95471,-3.39973 l -14.71008,-96.91351 a 2,2 0 0 0 -3.94338,-0.0669 l -17.72158,94.91672 a 4,4 0 0 1 -3.62623,3.18424 l -15.05405,0.95518 a 4,4 0 0 1 -4.28995,-4.11428 l 4.8613,-155.56168 z" />
  <circle
     style="fill:#ffb8b8"
     id="circle145"
     r="24.561029"
     cy="111.97411"
     cx="646.56079" />
  <path
     style="fill:#92e5ff"
     id="path147"
     d="m 627.3088,282.1552 c 6,14 32,24 38,4 4.64014,-15.46 23.02,-21.96 31.12989,-24.11 a 4.01608,4.01608 0 0 0 2.86035,-4.86005 l -22.67041,-89.05 a 31.272,31.272 0 0 0 -21.06006,-22.16 c -18.01953,-5.58 -37.01953,5.91 -40.06983,24.52 a 137.15658,137.15658 0 0 0 -1.58984,15.76 c -1.88037,39.29007 9.44971,86.68002 13.3999,95.90005 z" />
  <path
     style="fill:#ffb8b8"
     id="path149"
     d="m 708.69869,282.12951 a 10.05577,10.05577 0 0 0 -12.75277,-8.66732 l -20.49275,-29.275 -6.83741,17.2651 20.50855,25.15313 a 10.11027,10.11027 0 0 0 19.57442,-4.47588 z" />
  <path
     style="fill:#2f2e41"
     id="path151"
     d="m 683.34852,280.46295 a 4.505,4.505 0 0 1 -3.30867,-1.586 l -29.27686,-36.06483 a 46.37356,46.37356 0 0 1 -11.01848,-30.72844 l 0.56429,-37.033 a 14.49652,14.49652 0 1 1 28.40042,-5.832 l 2.15442,58.70723 22.49784,39.81265 a 4.51467,4.51467 0 0 1 -0.75115,5.1159 l -5.87132,6.20338 a 4.50564,4.50564 0 0 1 -2.34406,1.31062 4.4548,4.4548 0 0 1 -1.04643,0.0945 z" />
  <path
     style="fill:#2f2e41"
     id="path153"
     d="m 627.91831,132.06331 a 4.00709,4.00709 0 0 0 5.90278,-2.36826 l 0.0137,-0.0559 c 0.44576,-1.86412 0.0756,-3.81068 -0.0523,-5.72308 -0.12792,-1.9124 0.0593,-4.01327 1.36174,-5.41937 2.428,-2.62114 6.74756,-1.23165 10.25844,-1.8944 a 8.66429,8.66429 0 0 0 6.74007,-9.25291 c -0.05,-0.3975 -0.12841,-0.79545 -0.21633,-1.19315 a 6.67288,6.67288 0 0 1 6.92675,-8.081299 c 3.5481,0.20288 7.378,1.2779 10.31357,-1.35011 a 7.60777,7.60777 0 0 0 1.82654,-8.20134 c -1.67623,-4.8383 -6.4137,-7.37124 -11.10186,-8.76367 a 40.62025,40.62025 0 0 0 -34.43036,5.64955 c -2.96118,2.08724 -5.72662,4.70983 -6.98873,8.10575 -1.26211,3.39592 -0.65322,7.680299 2.19278,9.922059 a 18.332,18.332 0 0 0 -4.24619,17.80643 c 1.40571,4.52946 8.11447,8.87203 11.49941,10.8197 z" />
  <path
     style="fill:#3f3d56"
     id="path155"
     d="m 806.72088,463.88489 h -265 a 1,1 0 0 1 0,-2 h 265 a 1,1 0 0 1 0,2 z" />
  <path
     id="path2"
     d="m 446.01035,436.6405 a 80.61332,80.61332 0 0 1 -3.49117,25.22363 c -0.0874,0.29669 -0.19208,0.59344 -0.29681,0.89026 h -51.38979 a 46.120885,46.120885 0 0 1 3.47379,-10.47345 c 4.27657,-9.07704 11.25889,-16.84488 18.15391,-24.56026 9.49595,-10.63062 18.76497,-21.17387 20.23129,-34.99881 a 79.394872,79.394872 0 0 1 8.93736,18.45076 21.686098,21.686098 0 0 0 -7.17429,4.39878 c -0.57606,0.54113 -1.18709,1.32666 -0.89026,2.07725 0.27924,0.62839 1.0473,0.83795 1.7281,0.97752 1.64085,0.3142 3.2817,0.62839 4.92255,0.92521 1.29171,0.26177 2.60088,0.50618 3.91006,0.75059 a 85.713668,85.713668 0 0 1 1.88526,16.33852 z"
     style="fill:#f2f2f2;stroke-width:0.72898561" />
  <path
     id="path4"
     d="m 489.17844,430.98484 c -8.23919,5.00981 -13.47592,12.76017 -17.75249,21.43564 a 21.926175,21.926175 0 0 0 -9.96729,5.23673 c -0.59353,0.54123 -1.20446,1.32666 -0.89027,2.07725 0.26189,0.62849 1.04743,0.83794 1.72812,0.97752 1.62337,0.31429 3.28169,0.62848 4.90506,0.9252 -0.15705,0.36661 -0.31419,0.75059 -0.47124,1.11719 h -54.46201 a 77.010492,77.010492 0 0 1 8.18676,-9.35626 c 0.64588,-0.64597 1.30919,-1.25688 1.98998,-1.88526 a 81.456786,81.456786 0 0 1 23.5653,-14.87236 82.901877,82.901877 0 0 1 43.16808,-5.65565 z"
     style="fill:#f2f2f2;stroke-width:0.72898561" />
  <path
     id="path6"
     d="m 421.34533,462.75437 h -48.49218 a 78.772786,78.772786 0 0 1 0.0699,-11.66044 83.384129,83.384129 0 0 1 34.64967,-60.62397 c -2.51363,8.95482 -1.22193,17.85732 1.39644,26.79467 -0.36651,0.12221 -0.73311,0.22693 -1.06478,0.36651 a 21.688051,21.688051 0 0 0 -7.17429,4.39889 c -0.57607,0.54113 -1.18699,1.32666 -0.89026,2.07724 0.26177,0.62838 1.0473,0.83785 1.7281,0.97751 1.64085,0.31419 3.28169,0.62839 4.90506,0.92521 1.30919,0.26179 2.61837,0.50617 3.92755,0.76806 0.6109,0.10471 1.22193,0.22683 1.83285,0.34904 0.0872,0.20944 0.13966,0.40154 0.22692,0.59354 3.07224,8.466 6.42372,17.0019 7.9948,25.67748 a 59.937284,59.937284 0 0 1 0.803,6.58076 c 0.0522,0.92521 0.0873,1.8503 0.0873,2.7755 z"
     style="fill:#f2f2f2;stroke-width:0.72898561" />
  <circle
     id="circle8"
     r="16.412062"
     cy="19.849735"
     cx="50.277176"
     style="fill:#ffff38;stroke-width:0.72898561;fill-opacity:1" />
  <path
     id="path10"
     d="m 87.011239,12.079243 a 8.1428714,8.1428714 0 0 0 -6.871492,-5.71073 c -0.03571,-0.0053 -0.06952,0.0011 -0.104913,-6.74e-4 A 1.0237218,1.0237218 0 0 0 79.89474,6.335609 C 72.389223,5.365569 63.725382,8.95525 60.597337,16.070774 a 7.9505649,7.9505649 0 0 0 -6.658834,-3.24486 8.1094474,8.1094474 0 0 0 -7.253243,5.84631 0.95140641,0.95140641 0 0 0 0.423706,1.041214 4.1586661,4.1586661 0 0 0 1.714718,0.870415 q 2.04456,0.433154 4.103678,0.793574 4.018,0.703156 8.077933,1.136973 a 120.11888,120.11888 0 0 0 16.545579,0.625399 c 1.839497,-0.0572 3.613412,-0.118364 5.298795,-0.930193 a 7.8843002,7.8843002 0 0 0 3.039723,-2.652621 8.9443108,8.9443108 0 0 0 1.121899,-7.477719 z"
     style="fill:#f0f0f0;stroke-width:0.72898561" />
  <path
     id="path12"
     d="m 52.899944,33.961961 a 8.1430681,8.1430681 0 0 0 -6.871482,-5.710695 c -0.03581,-0.0053 -0.06963,0.0011 -0.105018,-6.74e-4 a 1.0227668,1.0227668 0 0 0 -0.140009,-0.03234 c -7.505518,-0.97003 -16.169369,2.619609 -19.297467,9.735139 a 7.9502369,7.9502369 0 0 0 -6.658844,-3.24483 8.10944,8.10944 0 0 0 -7.253243,5.84631 0.95157408,0.95157408 0 0 0 0.423769,1.04123 4.158914,4.158914 0 0 0 1.714644,0.8704 q 2.044571,0.4331 4.103689,0.79359 4.017999,0.70309 8.078006,1.13696 a 120.12371,120.12371 0 0 0 16.545569,0.6254 c 1.839433,-0.0572 3.613338,-0.1184 5.298805,-0.93025 a 7.8852478,7.8852478 0 0 0 3.039723,-2.65259 8.9446097,8.9446097 0 0 0 1.121879,-7.47774 z"
     style="fill:#f0f0f0;stroke-width:0.72898561" />
  <path
     id="path14"
     d="m 210.78498,288.69581 c -0.4154,0.60904 -1.50769,1.33408 -1.93346,1.93345 l 0.4542,-1.37733 -0.15482,-0.31898 -0.96673,-1.93345 -24.61286,-49.60271 -0.009,-0.009 -41.7241,-84.04721 v -0.009 l -0.95729,-1.92379 v -0.009 l -20.64913,-41.59821 -0.97617,-1.97213 q 1.10174,0.0291 2.20393,0.0871 l 0.98608,1.98178 20.59154,41.50154 0.009,0.009 0.95728,1.9238 v 0.009 l 40.66008,81.91068 v 0.009 l 0.95729,1.9238 v 0.009 l 24.61286,49.56404 0.32854,0.66702 z"
     style="fill:#3f3d56;stroke-width:0.72898561" />
  <path
     id="path16"
     d="M 208.03923,153.33993 H 23.839235 c 0.493278,-0.6477 0.99552,-1.29542 1.517586,-1.93346 H 206.52166 c 0.52206,0.63802 1.02429,1.2858 1.51757,1.93346 z"
     style="fill:#3f3d56;stroke-width:0.72898561" />
  <path
     id="path18"
     d="m 231.37614,235.26027 c -0.0581,0.64772 -0.12557,1.29542 -0.21287,1.93345 H 183.9773 v -1.93345 z"
     style="fill:#3f3d56;stroke-width:0.72898561" />
  <path
     id="path20"
     d="m 30.847998,145.03574 v 155.56551 c -0.667026,-0.70571 -1.30518,-1.42109 -1.933454,-2.13645 V 147.17218 c 0.628274,-0.71533 1.266428,-1.4307 1.933454,-2.13644 z"
     style="fill:#3f3d56;stroke-width:0.72898561" />
  <rect
     id="rect22"
     height="1.9334522"
     width="179.87109"
     y="286.99829"
     x="29.881542"
     style="fill:#3f3d56;stroke-width:0.72898561" />
  <path
     id="path24"
     d="m 209.59583,288.69581 h 0.22234 v -0.31902 a 3.1732743,3.1732743 0 0 1 -0.22234,0.31902 z M 208.1071,153.10283 c -0.49329,-0.64772 -0.99553,-1.29542 -1.51759,-1.93345 a 115.79682,115.79682 0 0 0 -85.06242,-43.49302 q -1.10173,-0.058 -2.20393,-0.087 c -1.10223,-0.0291 -2.20439,-0.0483 -3.31603,-0.0483 a 115.6561,115.6561 0 0 0 -85.091244,37.25763 c -0.666995,0.70569 -1.305181,1.42108 -1.933455,2.13646 q -1.841656,2.07362 -3.557733,4.23427 c -0.522002,0.63804 -1.024308,1.28574 -1.517575,1.93345 a 115.74693,115.74693 0 0 0 5.075308,147.05834 c 0.628274,0.71536 1.26646,1.43076 1.933455,2.13645 A 115.85258,115.85258 0 0 0 210.34976,290.97724 c 0.42578,-0.59937 0.85109,-1.19873 1.26647,-1.80778 a 115.07773,115.07773 0 0 0 19.61486,-52.21286 c 0.0873,-0.63803 0.15483,-1.28575 0.21286,-1.93346 q 0.56502,-5.65533 0.57022,-11.47502 a 115.34836,115.34836 0 0 0 -23.90709,-70.44534 z m 21.18112,83.85381 a 113.05847,113.05847 0 0 1 -18.6581,50.23107 q -0.39156,0.59455 -0.8119,1.18908 a 3.1732743,3.1732743 0 0 1 -0.22233,0.31902 c -0.0675,0.10635 -0.14492,0.21268 -0.22235,0.31897 a 113.93984,113.93984 0 0 1 -178.457707,10.4213 c -0.666994,-0.73471 -1.314629,-1.4694 -1.933454,-2.22346 A 113.84368,113.84368 0 0 1 26.34323,153.10279 c 0.512628,-0.64772 1.024782,-1.29542 1.556296,-1.93346 0.34835,-0.43503 0.705695,-0.86038 1.082853,-1.28575 0.618825,-0.75405 1.26646,-1.48875 1.933454,-2.22347 a 113.74995,113.74995 0 0 1 85.091227,-38.18568 q 2.16097,0 4.29221,0.0871 c 0.7444,0.0193 1.47936,0.058 2.21378,0.0967 a 113.9277,113.9277 0 0 1 81.6015,41.51121 c 0.5315,0.63805 1.04413,1.28574 1.55629,1.93345 a 114.09261,114.09261 0 0 1 23.83961,81.92036 c -0.0679,0.64774 -0.13547,1.29548 -0.22234,1.93348 z m -19.69232,51.73917 h 0.22233 v -0.31902 a 3.1834145,3.1834145 0 0 1 -0.22239,0.31902 z"
     style="fill:#cccccc;stroke-width:0.72898561" />
  <path
     id="path26"
     d="m 101.38657,70.755191 q 0,0.79739 -0.0517,1.58151 a 23.957309,23.957309 0 0 1 -2.244729,8.69754 c -0.0095,0.0233 -0.0217,0.045 -0.03171,0.0667 -0.06004,0.12665 -0.121734,0.25327 -0.185029,0.37834 a 23.669375,23.669375 0 0 1 -1.274855,2.2498 24.074823,24.074823 0 0 1 -19.758201,11.11889 l 0.238381,13.705439 3.108021,-1.63651 0.554962,1.0549 -3.639641,1.9165 0.44494,25.45432 0.0053,0.33999 -2.403106,0.53493 0.0053,-0.34164 0.756612,-41.026219 a 24.026965,24.026965 0 0 1 -16.998502,-7.39603 c -0.151628,-0.15661 -0.301612,-0.31829 -0.448332,-0.47829 l -0.01675,-0.0183 a 24.125399,24.125399 0 0 1 -4.389575,-6.79269 c 0.02328,0.0266 0.04835,0.0517 0.07173,0.0783 -9.93048,-24.95536 -4.153027,-36.52417 11.428896,-31.06049 0.08342,-0.0417 0.168344,-0.0816 0.251674,-0.12331 a 24.123141,24.123141 0 0 1 31.252119,9.48743 c 0.146709,0.24664 0.288383,0.49829 0.425001,0.75159 a 23.973217,23.973217 0 0 1 2.899694,11.45737 z"
     style="fill:#e5e5e5;stroke-width:0.72898561" />
  <path
     id="path28"
     d="m 129.72499,49.527771 a 36.216733,36.216733 0 0 1 -3.64457,13.77585 c -4.06992,8.23653 -11.21398,14.48152 -20.11756,16.81137 a 0.08715752,0.08715752 0 0 1 -0.0483,0.009 30.531995,30.531995 0 0 1 -6.854115,0.97641 h -0.193362 c -0.241678,0.009 -0.483366,0.009 -0.725054,0.009 -0.164321,0 -0.328652,0 -0.493036,-0.009 A 31.576843,31.576843 0 0 1 66.559061,49.527591 v -0.34801 a 21.890651,21.890651 0 0 1 0.870078,-5.9551 c 0,-0.009 0.0095,-0.0193 0.0095,-0.029 a 20.635935,20.635935 0 0 1 5.500678,-8.8262 C 79.271427,28.104907 89.29637,24.170332 98.141885,17.94461 117.51511,4.313769 131.7453,17.87699 129.72485,49.527561 Z"
     style="fill:#e5e5e5;stroke-width:0.72898561" />
  <path
     id="path30"
     style="opacity:0.2;isolation:isolate;stroke-width:0.72898561"
     d="m 126.08042,63.303621 c -4.06992,8.23653 -11.21398,14.48152 -20.11756,16.81137 a 0.08715752,0.08715752 0 0 1 -0.0483,0.009 31.093562,31.093562 0 0 1 -6.825096,0.90874 h -0.222381 q -0.609019,0.0145 -1.21809,0 a 31.629475,31.629475 0 0 1 -30.838526,-31.97931 32.357674,32.357674 0 0 1 0.61872,-5.82939 c 0,-0.009 0.0095,-0.0193 0.0095,-0.029 a 20.635935,20.635935 0 0 1 5.500678,-8.8262 31.582325,31.582325 0 0 0 24.873895,37.47998 c 0.299674,0.058 0.59936,0.11601 0.899045,0.16432 0.870015,0.14507 1.740085,0.25137 2.619845,0.31904 a 31.541341,31.541341 0 0 0 24.74819,-9.02924 z" />
  <polygon
     id="polygon32"
     points="133.951,106.443 133.95,106.548 133.883,110.141 132.557,182.216 132.548,182.692 136.973,183.934 136.965,183.454 136.097,133.582 142.638,130.139 141.64,128.243 136.053,131.184 135.633,107.056 135.633,107.053 135.623,106.542 135.623,106.451 135.406,94.073 135.102,76.628 134.869,63.224 134.747,63.224 134.519,75.596 134.519,75.599 134.183,93.85 "
     style="fill:#3f3d56"
     transform="matrix(0.72898561,0,0,0.72898561,-2.8762026e-4,3.437653)" />
  <path
     style="stroke-width:0.72898561"
     id="path34"
     d="m 214.26584,163.03709 c -20.04848,-4.01709 -40.1609,-7.66122 -60.51752,-9.89133 a 330.4066,330.4066 0 0 0 -58.167562,-1.682 c -17.521269,1.18186 -35.192625,3.95322 -51.652557,10.27103 -12.6838,4.86844 -26.204066,12.23417 -33.055355,24.5181 -6.6043341,11.84115 -4.0284278,25.49631 3.162858,36.42139 8.652612,13.14514 22.145133,22.15292 36.172898,28.73661 15.971868,7.49616 33.055271,12.35514 50.160528,16.48751 8.67529,2.09589 17.39752,3.99034 26.12054,5.8753 1.81975,0.3932 2.59728,-2.40195 0.77097,-2.79657 C 109.66991,267.17606 92.028323,263.36256 74.874426,257.86018 59.00034,252.76828 42.75532,246.24559 29.755866,235.5536 19.239267,226.9038 9.240151,214.26953 9.8608936,199.90476 10.48665,185.42376 22.636544,175.31295 34.545077,169.08954 49.427426,161.31203 66.335848,157.52352 82.904148,155.54349 a 293.82177,293.82177 0 0 1 57.124312,-0.7769 c 25.42176,1.93431 50.46751,6.42147 75.41745,11.44745" />
  <path
     id="path36"
     d="m 120.14435,186.09955 c 8.4368,4.21684 13.57323,9.78614 13.57323,15.8947 0,13.15907 -23.81165,23.82661 -53.184443,23.82661 -12.770448,0 -24.486452,-2.01809 -33.654505,-5.379 9.73772,4.8672 23.873135,7.93184 39.611162,7.93184 29.372746,0 53.184446,-10.66753 53.184446,-23.8266 2e-5,-7.43793 -7.61077,-14.07815 -19.52989,-18.44755 z"
     style="fill:#f1f1f1;stroke-width:0.72898561" />
  <path
     id="path38"
     d="m 138.9108,195.13844 c 9.51993,4.75822 15.31586,11.04256 15.31586,17.93531 0,14.84849 -26.86866,26.88553 -60.012355,26.88553 -14.410036,0 -27.630059,-2.27718 -37.975154,-6.06953 10.987884,5.49206 26.938043,8.95015 44.696519,8.95015 33.14369,0 60.01235,-12.03702 60.01235,-26.88552 0,-8.39282 -8.58784,-15.88552 -22.03722,-20.81594 z"
     style="fill:#f1f1f1;stroke-width:0.72898561" />
  <path
     id="path40"
     d="m 112.96243,190.08093 c 5.94391,2.97093 9.56272,6.89464 9.56272,11.19825 0,9.27091 -16.77592,16.78648 -37.469791,16.78648 A 70.37934,70.37934 0 0 1 61.34488,214.27603 c 6.860485,3.42906 16.819258,5.58819 27.907093,5.58819 20.693867,0 37.469877,-7.51555 37.469877,-16.78647 -1e-4,-5.24023 -5.3621,-9.91845 -13.75942,-12.99682 z"
     style="fill:#f1f1f1;stroke-width:0.72898561" />
  <path
     id="path42"
     d="m 81.310995,207.83508 c -12.222606,0 -18.166613,-3.35305 -21.000703,-6.16576 a 3.6917509,3.6917509 0 0 1 2.61233,-6.30426 h 42.640318 a 2.7913953,2.7913953 0 0 1 1.72813,4.98507 c -4.34366,3.41466 -12.376738,7.48495 -25.980075,7.48495 z"
     style="fill:#3f3d56;stroke-width:0.72898561" />
  <path
     id="path44"
     d="m 90.164943,164.92375 a 16.163549,16.163549 0 0 0 -11.643218,-3.18489 c 7.361779,1.81766 1.55243,11.99164 8.256663,22.54301 3.653608,5.75018 -3.451894,8.56922 -10.220749,9.34097 a 16.223407,16.223407 0 0 0 13.607304,-28.69912 z"
     style="fill:#3f3d56;stroke-width:0.72898561" />
  <rect
     id="rect46"
     height="37.370823"
     width="1.5699798"
     y="159.61992"
     x="81.049477"
     style="fill:#3f3d56;stroke-width:0.72898561" />
  <path
     id="path48"
     d="m 233.70738,170.10852 a 38.83689,38.83689 0 0 0 -54.11479,9.39143 c -12.35,17.53676 -24.74227,63.52251 -15.99456,90.1624 26.09227,-27.56066 66.17779,-30.42455 79.50076,-45.43905 14.23611,-16.04353 8.14534,-41.76477 -9.39141,-54.11478 z"
     style="fill:#92e5ff;stroke-width:0.72898561" />
  <circle
     r="12.665985"
     cy="197.1534"
     cx="210.8174"
     data-name="b262ea8c-1946-46c9-a449-3a1996c39394"
     id="af3c8991-f89c-43e0-a050-89c81726f2a6"
     style="fill:#ffffff;stroke-width:0.72898561" />
  <circle
     r="8.2959509"
     cy="275.16034"
     cx="152.89082"
     data-name="bcc29a3a-8123-4529-80aa-6f70df2823cf"
     id="a49e5b2e-c339-415c-b240-8977b61bd9a6"
     style="fill:#92e5ff;stroke-width:0.72898561" />
  <path
     id="path52"
     style="opacity:0.2;isolation:isolate;fill:#231f20;stroke-width:0.72898561"
     d="m 224.36855,194.23081 a 12.665747,12.665747 0 1 1 -21.8756,12.77273 12.664135,12.664135 0 0 0 19.28304,-15.91415 12.665731,12.665731 0 0 1 2.59256,3.14142 z" />
  <path
     id="path54"
     style="opacity:0.2;isolation:isolate;fill:#231f20;stroke-width:0.72898561"
     d="m 243.12264,224.28302 c -13.32294,15.0145 -53.40851,17.87837 -79.50077,45.43905 a 53.721866,53.721866 0 0 1 -1.87545,-7.71094 c 26.0793,-25.05517 63.93325,-28.22158 76.80567,-42.72826 11.52103,-12.98379 9.72758,-32.30486 -0.67002,-45.74859 14.26017,13.21867 18.28657,36.04639 5.24057,50.74874 z" />
  <polygon
     id="polygon56"
     points="520.882,567.209 520.879,617.234 507.91,617.234 501.74,567.209 "
     style="fill:#ffb6b6"
     transform="matrix(0.72898561,0,0,0.72898561,-2.8762026e-4,3.437653)" />
  <path
     id="path58"
     d="m 382.12443,462.55724 -30.48536,-10e-4 v -0.38559 a 11.866391,11.866391 0 0 1 11.86574,-11.86557 h 7.4e-4 l 5.56855,-4.22459 10.38967,4.2252 2.66119,1.1e-4 z"
     style="fill:#2f2e41;stroke-width:0.72898561" />
  <polygon
     id="polygon60"
     points="459.603,560.265 470.62,609.061 457.969,611.918 440.931,564.48 "
     style="fill:#ffb6b6"
     transform="matrix(0.72898561,0,0,0.72898561,-2.8762026e-4,3.437653)" />
  <path
     id="path62"
     d="m 347.44577,455.84311 -29.7368,6.71416 -0.0849,-0.37612 a 11.866428,11.866428 0 0 1 8.96058,-14.18788 l 7.3e-4,-1.6e-4 4.50118,-5.34746 11.0652,1.83284 2.59585,-0.58611 z"
     style="fill:#2f2e41;stroke-width:0.72898561" />
  <path
     id="path64"
     d="m 391.68781,230.44911 c 4.43274,13.36913 3.9641,27.88094 -1.06547,43.45605 l -2.15004,87.69196 c 3.55446,3.91174 5.78498,19.86169 0.30963,31.2828 -7.31157,15.25126 -2.27461,36.34186 -7.44301,46.45994 h -14.99125 l -3.68407,-41.19387 -3.24459,-4.64525 -0.49371,-37.15536 c -1.99104,-4.71415 -4.298,-9.38924 -0.2485,-14.85076 l -0.10798,-6.45387 -0.57558,-34.40174 -22.60866,33.06039 c -0.6423,7.48241 -4.46712,11.40306 -9.53095,13.93704 l 7.00204,30.90316 c 12.24618,10.482 9.25118,26.70411 9.45335,41.72218 l 4.01526,17.72124 -18.45064,1.64942 -8.14221,-24.03248 -9.15446,-14.80934 -15.92178,-59.20522 11.10343,-25.77013 4.53813,-10.53263 25.34339,-58.8199 z"
     style="fill:#2f2e41;stroke-width:0.72898561" />
  <path
     id="path66"
     d="m 235.05679,182.7691 a 7.1442267,7.1442267 0 0 0 10.91135,-0.97486 l 24.44094,6.87023 -4.01165,-12.56832 -22.59451,-4.59724 a 7.182943,7.182943 0 0 0 -8.74615,11.27019 z"
     style="fill:#ffb8b8;stroke-width:0.72898561" />
  <path
     id="path68"
     d="m 255.0463,172.61811 23.85591,-0.17496 v 0 a 39.881753,39.881753 0 0 1 19.7244,-0.44673 l 1.26594,0.2928 9.95542,-1.12911 c 5.93561,-11.86433 16.94888,-22.5909 31.73358,-32.47245 a 20.278317,20.278317 0 0 1 29.89589,5.00133 v 0 a 20.300135,20.300135 0 0 1 -5.44383,27.32598 l -45.05131,26.48742 a 26.411534,26.411534 0 0 1 -13.02745,3.64116 v 0 l -0.1093,0.0568 -25.69902,-9.6287 -13.22016,-1.68227 -17.9261,-5.20981 z"
     style="fill:#92e5ff;stroke-width:0.72898561" />
  <circle
     id="circle70"
     r="22.507839"
     cy="94.440521"
     cx="350.75705"
     style="fill:#ffb8b8;stroke-width:0.72898561" />
  <path
     id="path72"
     d="m 371.77722,108.71541 c 1.66823,-2.38038 2.85141,-6.1927 3.5504,-8.979189 a 27.027054,27.027054 0 0 0 -3.70092,-21.66485 8.2406647,8.2406647 0 0 0 -3.21228,-3.03168 c -1.36185,-0.60803 -3.15748,-0.46317 -4.1068,0.68711 a 7.3862791,7.3862791 0 0 0 -2.3466,-5.37881 13.017438,13.017438 0 0 0 -5.21736,-2.93301 21.678282,21.678282 0 0 0 -21.5805,5.33573 c -1.08607,1.10522 -0.69859,-4.41726 -1.90475,-3.4445 a 5.9993474,5.9993474 0 0 1 -4.2655,1.5217 c -1.54084,-0.1641 -4.37496,5.32674 -4.3913,3.77729 -1.62104,1.6244 -2.33521,8.47471 -1.82813,10.71286 0.50709,2.23813 8.05077,1.24893 10.21364,2.01601 1.43271,0.5081 2.98898,0.52528 4.47272,0.85604 a 11.151205,11.151205 0 0 1 8.26443,12.264529 14.773695,14.773695 0 0 1 3.40304,-3.300939 5.0004039,5.0004039 0 0 1 4.54193,-0.56701 5.617862,5.617862 0 0 1 2.76819,3.487799 c 0.49122,1.44715 0.6816,2.98344 1.18191,4.42748 1.46807,4.2371 2.22552,8.6849 6.31783,9.68956 3.22948,0.79278 5.56232,-2.22602 7.84005,-5.47612 z"
     style="fill:#2f2e41;stroke-width:0.72898561" />
  <path
     id="path74"
     d="m 393.60845,225.9871 -2.47127,-4.94251 c -3.02529,-18.74222 -6.01413,-36.2233 -1.95368,-51.94751 0.25514,-13.72681 -3.98755,-26.62256 -15.76795,-33.66456 l -5.31431,-3.17839 -2.68995,-6.82333 -24.77094,0.60505 -0.0729,8.94466 -8.87175,14.1496 v 0.0584 l 0.55402,76.99546 2.44939,7.94595 -3.69595,9.24352 1.96097,5.89751 48.83475,-7.80745 5.67879,-0.91122 a 10.145752,10.145752 0 0 0 1.88808,-0.82375 10.374763,10.374763 0 0 0 4.53428,-5.06646 c 0.0511,-0.12393 0.0948,-0.24056 0.13852,-0.36449 a 10.157554,10.157554 0 0 0 0.65609,-3.13464 10.4269,10.4269 0 0 0 -1.08619,-5.17576 z"
     style="fill:#92e5ff;stroke-width:0.72898561" />
  <path
     id="path76"
     d="m 394.69463,231.16293 a 10.157554,10.157554 0 0 1 -0.65608,3.13464 l -4.67281,5.43095 a 10.145752,10.145752 0 0 1 -1.88808,0.82375 l -5.67878,0.91123 8.21565,-15.4472 -18.05696,-39.53289 z"
     style="opacity:0.2;stroke-width:0.72898561" />
  <path
     id="path78"
     d="m 414.34828,276.88795 a 7.5059711,7.5059711 0 0 1 -1.13396,-11.45353 l -11.88512,-23.87954 13.75943,1.6755 9.17686,22.41954 a 7.5466631,7.5466631 0 0 1 -9.91721,11.23804 z"
     style="fill:#ffb8b8;stroke-width:0.72898561" />
  <path
     id="path80"
     d="m 366.1668,194.72469 9.01609,-1.24529 c 0,0 0.87054,13.59332 5.18327,15.65344 4.31273,2.06013 2.85887,2.39918 3.36742,4.57997 0.50857,2.18079 2.81001,5.47642 6.22627,6.97913 3.41626,1.50272 18.95562,39.28928 18.95562,39.28928 l 13.08476,-3.05135 a 42.09647,42.09647 0 0 1 -2.37326,-10.17702 c -0.45969,-5.25804 -6.41872,-17.66473 -8.38114,-19.50649 -1.96243,-1.84174 -1.18663,-5.08851 -2.20373,-9.4501 -1.01709,-4.36158 -0.31102,-0.31731 -2.00622,-7.58661 -1.69519,-7.26932 -20.75333,-50.8344 -21.55208,-57.54629 -0.79874,-6.71189 -10.15112,-10.66265 -10.15112,-10.66265 l -7.26932,1.69518 z"
     style="fill:#92e5ff;stroke-width:0.72898561" />
  <path
     d="m 230.24051,463.51513 h 269.41045 a 0.863015,0.863015 0 0 0 0,-1.72603 H 230.2405 a 0.863015,0.863015 0 1 0 0,1.72603 v 0 z"
     data-name="f02c4e45-f306-4b42-b3ad-5ddd3016d7d2"
     id="a00e3c47-1fa9-4e2e-8ad1-93a2fdd4719a-76"
     style="fill:#cccccc;stroke-width:0.69207191" />
</svg>
